<?xml version="1.0" encoding="UTF-8" standalone="no"?>
<!-- Created with Inkscape (http://www.inkscape.org/) -->

<svg
   xmlns:dc="http://purl.org/dc/elements/1.1/"
   xmlns:cc="http://creativecommons.org/ns#"
   xmlns:rdf="http://www.w3.org/1999/02/22-rdf-syntax-ns#"
   xmlns:svg="http://www.w3.org/2000/svg"
   xmlns="http://www.w3.org/2000/svg"
   xmlns:xlink="http://www.w3.org/1999/xlink"
   xmlns:sodipodi="http://sodipodi.sourceforge.net/DTD/sodipodi-0.dtd"
   xmlns:inkscape="http://www.inkscape.org/namespaces/inkscape"
   width="210mm"
   height="297mm"
   viewBox="0 0 744.09448819 1052.3622047"
   id="svg2"
   version="1.1"
   inkscape:version="0.91 r13725"
   sodipodi:docname="images.svg">
  <defs
     id="defs4">
    <linearGradient
       id="linearGradient3433"
       inkscape:collect="always">
      <stop
         id="stop3435"
         offset="0"
         style="stop-color:#b3b3b3;stop-opacity:1" />
      <stop
         id="stop3437"
         offset="1"
         style="stop-color:#f9f9f9;stop-opacity:1" />
    </linearGradient>
    <linearGradient
       inkscape:collect="always"
       id="linearGradient3470">
      <stop
         style="stop-color:#a05a2c;stop-opacity:1"
         offset="0"
         id="stop3472" />
      <stop
         style="stop-color:#28170b;stop-opacity:1"
         offset="1"
         id="stop3474" />
    </linearGradient>
    <linearGradient
       inkscape:collect="always"
       id="linearGradient3538">
      <stop
         style="stop-color:#d40000;stop-opacity:1"
         offset="0"
         id="stop3540" />
      <stop
         style="stop-color:#550000;stop-opacity:1"
         offset="1"
         id="stop3542" />
    </linearGradient>
    <linearGradient
       inkscape:collect="always"
       id="linearGradient4160">
      <stop
         style="stop-color:#cccccc;stop-opacity:1;"
         offset="0"
         id="stop4162" />
      <stop
         style="stop-color:#cccccc;stop-opacity:0;"
         offset="1"
         id="stop4164" />
    </linearGradient>
    <linearGradient
       inkscape:collect="always"
       xlink:href="#linearGradient4160"
       id="linearGradient4166"
       x1="-577.80725"
       y1="842.25049"
       x2="-577.80725"
       y2="349.29602"
       gradientUnits="userSpaceOnUse"
       gradientTransform="translate(-226.27417,16.162441)" />
    <linearGradient
       inkscape:collect="always"
       xlink:href="#linearGradient3433"
       id="linearGradient3426"
       gradientUnits="userSpaceOnUse"
       gradientTransform="matrix(0.54189218,0,0,0.49074419,691.5931,195.95227)"
       x1="-577.80725"
       y1="842.25049"
       x2="-577.80725"
       y2="349.29602" />
    <radialGradient
       inkscape:collect="always"
       xlink:href="#linearGradient3538"
       id="radialGradient3544"
       cx="-387.06836"
       cy="733.18591"
       fx="-387.06836"
       fy="733.18591"
       r="77.046875"
       gradientTransform="matrix(1.0619816,0,0,0.99998735,23.991136,0.00923026)"
       gradientUnits="userSpaceOnUse" />
    <radialGradient
       inkscape:collect="always"
       xlink:href="#linearGradient3538"
       id="radialGradient3634"
       gradientUnits="userSpaceOnUse"
       gradientTransform="matrix(1.0619816,0,0,0.99998735,23.991136,0.00923026)"
       cx="-387.06836"
       cy="733.18591"
       fx="-387.06836"
       fy="733.18591"
       r="77.046875" />
    <radialGradient
       inkscape:collect="always"
       xlink:href="#linearGradient3470"
       id="radialGradient3476"
       cx="-809.1322"
       cy="968.51953"
       fx="-809.1322"
       fy="968.51953"
       r="158.67679"
       gradientTransform="matrix(0.52352483,0,0,0.49242689,622.91965,335.3209)"
       gradientUnits="userSpaceOnUse" />
  </defs>
  <sodipodi:namedview
     id="base"
     pagecolor="#ffffff"
     bordercolor="#666666"
     borderopacity="1.0"
     inkscape:pageopacity="0.0"
     inkscape:pageshadow="2"
     inkscape:zoom="0.24748737"
     inkscape:cx="11.649477"
     inkscape:cy="335.80383"
     inkscape:document-units="px"
     inkscape:current-layer="layer1"
     showgrid="false"
     inkscape:window-width="1280"
     inkscape:window-height="748"
     inkscape:window-x="-6"
     inkscape:window-y="24"
     inkscape:window-maximized="1"
     showguides="false" />
  <metadata
     id="metadata7">
    <rdf:RDF>
      <cc:Work
         rdf:about="">
        <dc:format>image/svg+xml</dc:format>
        <dc:type
           rdf:resource="http://purl.org/dc/dcmitype/StillImage" />
      </cc:Work>
    </rdf:RDF>
  </metadata>
  <g
     inkscape:label="Layer 1"
     inkscape:groupmode="layer"
     id="layer1">
    <g
       id="g4155"
       transform="matrix(0.2515704,0,0,0.2515704,605.1585,35.145151)"
       inkscape:export-xdpi="51.36306"
       inkscape:export-ydpi="51.36306">
      <circle
         r="223.57143"
         cy="260.21936"
         cx="-300.71429"
         id="path4258"
         style="fill:#800000;fill-opacity:1;stroke:none" />
      <g
         id="g4291">
        <g
           style="fill:#ffffff;stroke:none"
           id="g4232"
           transform="matrix(1.1704388,0,0,1.1704388,-172.6242,-39.959644)">
          <path
             inkscape:connector-curvature="0"
             id="path3357"
             d="m -139.95943,259.05164 21.01196,24.99699 66.65865,-53.61674 67.020917,-64.12272 14.128739,-30.79339 -34.0538751,11.59281 -63.0358959,49.6317 z"
             style="fill:#ffffff;fill-opacity:1;fill-rule:evenodd;stroke:none;stroke-width:0.50718534px;stroke-linecap:butt;stroke-linejoin:miter;stroke-opacity:1" />
          <path
             inkscape:connector-curvature="0"
             id="path3347"
             d="m -62.250965,193.11767 -16.846085,4.89057 -12.860912,10.68754 -8.513188,-4.16644 2.897495,8.69446 -17.388925,15.7594 -1.08668,-1.63052 1.8118,-1.63052 -11.0501,-5.61471 3.26104,11.77324 2.71721,-1.44924 0.72412,1.26797 -20.83125,17.93276 -2.36951,-3.31156 2.04955,-1.40863 -15.88224,-12.03971 8.32497,18.31514 1.79397,-1.53642 2.56169,2.81726 -12.55284,10.24673 -3.2016,14.4736 2.17732,4.09909 -7.04512,5.25115 c 0.66722,4.44303 -0.86902,6.3155 -2.17733,8.45375 -14.75356,13.93079 -30.29965,27.56347 -47.77448,40.47379 -30.8947,-4.53212 -30.55264,10.50598 -34.22412,23.02938 20.89826,-28.35106 49.03731,5.88334 14.85301,18.47661 17.07333,1.88578 30.67176,-1.3167 28.80059,-27.17107 18.18657,-18.35449 32.0653,-30.00693 47.45849,-44.01616 3.43643,-2.15292 5.87153,-0.30106 8.69446,0 l 6.88366,-6.5211 2.35464,1.08669 13.76632,-0.54285 12.31708,-11.23039 3.07976,2.89749 -2.17336,1.99308 17.38892,12.1358 -9.41958,-18.47561 -1.99209,0.9054 -2.89848,-2.53593 21.012528,-18.29532 1.267963,1.63052 -1.630525,2.7172 10.143707,3.80389 -3.079761,-10.50626 -1.810814,1.26796 -1.811798,-2.35464 17.932765,-15.03429 9.057022,5.43442 -3.261044,-10.86883 13.042195,-10.32498 6.339817,-15.39585 -34.41629,26.80752 -19.200733,-22.09823 32.786763,-29.16315 z m -40.213255,37.32072 6.276413,13.96047 11.911918,7.04512 -32.405371,26.00118 c -0.86756,-9.51972 -0.65961,-19.89179 -19.08483,-15.49788 l 33.30187,-31.50889 z m -44.06074,34.07057 6.4042,0 -1.28084,5.89108 -6.4042,1.92175 1.28084,-7.81283 z m 17.03529,19.72475 5.12336,0.12779 0,7.55726 -7.3007,0.12778 2.17734,-7.81283 z"
             style="fill:#ffffff;fill-opacity:1;fill-rule:evenodd;stroke:none;stroke-width:0.50718534px;stroke-linecap:butt;stroke-linejoin:miter;stroke-opacity:1" />
        </g>
        <g
           id="g4273"
           transform="matrix(-1.2976562,0,0,-1.2976562,-699.32744,605.04871)">
          <path
             id="circle3363"
             d="m -307.17932,136.14863 a 129.5843,129.5843 0 0 0 -129.58495,129.58267 129.5843,129.5843 0 0 0 18.54871,66.5047 l 8.17478,-8.93831 a 118.01427,118.01427 0 0 1 -15.15169,-57.56639 118.01427,118.01427 0 0 1 118.01315,-118.01315 118.01427,118.01427 0 0 1 60.1793,16.66732 l 9.25607,-7.93475 a 129.5843,129.5843 0 0 0 -69.43537,-20.30209 z m 119.78938,80.5454 -10.39222,5.491 a 118.01427,118.01427 0 0 1 8.61827,43.54627 118.01427,118.01427 0 0 1 -118.01543,118.01543 118.01427,118.01427 0 0 1 -71.52935,-24.33461 l -11.17176,5.93677 a 129.5843,129.5843 0 0 0 82.70111,29.96736 129.5843,129.5843 0 0 0 129.58495,-129.58495 129.5843,129.5843 0 0 0 -9.79557,-49.03727 z"
             style="fill:#ffffff;fill-opacity:1;stroke:none"
             inkscape:connector-curvature="0" />
          <path
             id="path3359"
             d="m -307.17932,158.13095 a 107.60128,107.60128 0 0 0 -107.60036,107.60035 107.60128,107.60128 0 0 0 12.14787,49.46933 l 6.9472,-7.59186 a 98.013034,98.013034 0 0 1 -9.50753,-41.87747 98.013034,98.013034 0 0 1 98.01282,-98.01282 98.013034,98.013034 0 0 1 43.91203,10.60938 l 7.85017,-6.73002 a 107.60128,107.60128 0 0 0 -51.7622,-13.46689 z m 100.16853,68.93014 -8.38967,4.43258 a 98.013034,98.013034 0 0 1 6.23624,34.23763 98.013034,98.013034 0 0 1 -98.0151,98.01282 98.013034,98.013034 0 0 1 -51.68219,-14.87509 l -9.64469,5.12524 a 107.60128,107.60128 0 0 0 61.32688,19.33967 107.60128,107.60128 0 0 0 107.60264,-107.60264 107.60128,107.60128 0 0 0 -7.43411,-38.67021 z"
             style="fill:#ffffff;fill-opacity:1;stroke:none"
             inkscape:connector-curvature="0" />
        </g>
      </g>
    </g>
    <g
       id="g4168"
       inkscape:export-xdpi="21.555353"
       inkscape:export-ydpi="21.555353"
       transform="matrix(0.26766749,0,0,0.26766749,403.31133,-51.199526)">
      <rect
         y="357.37726"
         x="-1442.4978"
         height="501.03568"
         width="1248.5486"
         id="rect4158"
         style="fill:url(#linearGradient4166);fill-opacity:1;stroke:none" />
      <g
         inkscape:export-ydpi="43.404366"
         inkscape:export-xdpi="43.404366"
         transform="translate(-203.70771,356.00206)"
         id="g4197">
        <g
           transform="matrix(0.65385577,0,0,0.65385577,-790.04989,81.747099)"
           id="g4165">
          <circle
             style="fill:#800000;fill-opacity:1;stroke:none"
             id="circle4167"
             cx="-300.71429"
             cy="260.21936"
             r="223.57143" />
          <g
             id="g4169">
            <g
               transform="matrix(1.1704388,0,0,1.1704388,-172.6242,-39.959644)"
               id="g4171"
               style="fill:#ffffff;stroke:none">
              <path
                 style="fill:#ffffff;fill-opacity:1;fill-rule:evenodd;stroke:none;stroke-width:0.50718534px;stroke-linecap:butt;stroke-linejoin:miter;stroke-opacity:1"
                 d="m -139.95943,259.05164 21.01196,24.99699 66.65865,-53.61674 67.020917,-64.12272 14.128739,-30.79339 -34.0538751,11.59281 -63.0358959,49.6317 z"
                 id="path4173"
                 inkscape:connector-curvature="0" />
              <path
                 style="fill:#ffffff;fill-opacity:1;fill-rule:evenodd;stroke:none;stroke-width:0.50718534px;stroke-linecap:butt;stroke-linejoin:miter;stroke-opacity:1"
                 d="m -62.250965,193.11767 -16.846085,4.89057 -12.860912,10.68754 -8.513188,-4.16644 2.897495,8.69446 -17.388925,15.7594 -1.08668,-1.63052 1.8118,-1.63052 -11.0501,-5.61471 3.26104,11.77324 2.71721,-1.44924 0.72412,1.26797 -20.83125,17.93276 -2.36951,-3.31156 2.04955,-1.40863 -15.88224,-12.03971 8.32497,18.31514 1.79397,-1.53642 2.56169,2.81726 -12.55284,10.24673 -3.2016,14.4736 2.17732,4.09909 -7.04512,5.25115 c 0.66722,4.44303 -0.86902,6.3155 -2.17733,8.45375 -14.75356,13.93079 -30.29965,27.56347 -47.77448,40.47379 -30.8947,-4.53212 -30.55264,10.50598 -34.22412,23.02938 20.89826,-28.35106 49.03731,5.88334 14.85301,18.47661 17.07333,1.88578 30.67176,-1.3167 28.80059,-27.17107 18.18657,-18.35449 32.0653,-30.00693 47.45849,-44.01616 3.43643,-2.15292 5.87153,-0.30106 8.69446,0 l 6.88366,-6.5211 2.35464,1.08669 13.76632,-0.54285 12.31708,-11.23039 3.07976,2.89749 -2.17336,1.99308 17.38892,12.1358 -9.41958,-18.47561 -1.99209,0.9054 -2.89848,-2.53593 21.012528,-18.29532 1.267963,1.63052 -1.630525,2.7172 10.143707,3.80389 -3.079761,-10.50626 -1.810814,1.26796 -1.811798,-2.35464 17.932765,-15.03429 9.057022,5.43442 -3.261044,-10.86883 13.042195,-10.32498 6.339817,-15.39585 -34.41629,26.80752 -19.200733,-22.09823 32.786763,-29.16315 z m -40.213255,37.32072 6.276413,13.96047 11.911918,7.04512 -32.405371,26.00118 c -0.86756,-9.51972 -0.65961,-19.89179 -19.08483,-15.49788 l 33.30187,-31.50889 z m -44.06074,34.07057 6.4042,0 -1.28084,5.89108 -6.4042,1.92175 1.28084,-7.81283 z m 17.03529,19.72475 5.12336,0.12779 0,7.55726 -7.3007,0.12778 2.17734,-7.81283 z"
                 id="path4175"
                 inkscape:connector-curvature="0" />
            </g>
            <g
               transform="matrix(-1.2976562,0,0,-1.2976562,-699.32744,605.04871)"
               id="g4177">
              <path
                 inkscape:connector-curvature="0"
                 style="fill:#ffffff;fill-opacity:1;stroke:none"
                 d="m -307.17932,136.14863 a 129.5843,129.5843 0 0 0 -129.58495,129.58267 129.5843,129.5843 0 0 0 18.54871,66.5047 l 8.17478,-8.93831 a 118.01427,118.01427 0 0 1 -15.15169,-57.56639 118.01427,118.01427 0 0 1 118.01315,-118.01315 118.01427,118.01427 0 0 1 60.1793,16.66732 l 9.25607,-7.93475 a 129.5843,129.5843 0 0 0 -69.43537,-20.30209 z m 119.78938,80.5454 -10.39222,5.491 a 118.01427,118.01427 0 0 1 8.61827,43.54627 118.01427,118.01427 0 0 1 -118.01543,118.01543 118.01427,118.01427 0 0 1 -71.52935,-24.33461 l -11.17176,5.93677 a 129.5843,129.5843 0 0 0 82.70111,29.96736 129.5843,129.5843 0 0 0 129.58495,-129.58495 129.5843,129.5843 0 0 0 -9.79557,-49.03727 z"
                 id="path4179" />
              <path
                 inkscape:connector-curvature="0"
                 style="fill:#ffffff;fill-opacity:1;stroke:none"
                 d="m -307.17932,158.13095 a 107.60128,107.60128 0 0 0 -107.60036,107.60035 107.60128,107.60128 0 0 0 12.14787,49.46933 l 6.9472,-7.59186 a 98.013034,98.013034 0 0 1 -9.50753,-41.87747 98.013034,98.013034 0 0 1 98.01282,-98.01282 98.013034,98.013034 0 0 1 43.91203,10.60938 l 7.85017,-6.73002 a 107.60128,107.60128 0 0 0 -51.7622,-13.46689 z m 100.16853,68.93014 -8.38967,4.43258 a 98.013034,98.013034 0 0 1 6.23624,34.23763 98.013034,98.013034 0 0 1 -98.0151,98.01282 98.013034,98.013034 0 0 1 -51.68219,-14.87509 l -9.64469,5.12524 a 107.60128,107.60128 0 0 0 61.32688,19.33967 107.60128,107.60128 0 0 0 107.60264,-107.60264 107.60128,107.60128 0 0 0 -7.43411,-38.67021 z"
                 id="path4181" />
            </g>
          </g>
        </g>
        <g
           id="g4191"
           transform="matrix(0.78707311,0,0,0.78707311,-169.84262,57.640881)">
          <text
             sodipodi:linespacing="125%"
             id="text4183"
             y="299.12643"
             x="-807.95221"
             style="font-style:normal;font-variant:normal;font-weight:normal;font-stretch:normal;font-size:266.89419556px;line-height:125%;font-family:'Bell MT';-inkscape-font-specification:'Bell MT, Normal';text-align:start;letter-spacing:0px;word-spacing:0px;writing-mode:lr-tb;text-anchor:start;fill:#000000;fill-opacity:1;stroke:none;stroke-width:1px;stroke-linecap:butt;stroke-linejoin:miter;stroke-opacity:1"
             xml:space="preserve"><tspan
               y="299.12643"
               x="-807.95221"
               id="tspan4185"
               sodipodi:role="line">Keening</tspan></text>
          <text
             sodipodi:linespacing="125%"
             id="text4187"
             y="349.29605"
             x="-793.97986"
             style="font-style:normal;font-variant:normal;font-weight:normal;font-stretch:normal;font-size:40px;line-height:125%;font-family:'Bell MT';-inkscape-font-specification:'Bell MT, Normal';text-align:start;letter-spacing:0px;word-spacing:0px;writing-mode:lr-tb;text-anchor:start;fill:#000000;fill-opacity:1;stroke:none;stroke-width:1px;stroke-linecap:butt;stroke-linejoin:miter;stroke-opacity:1"
             xml:space="preserve"><tspan
               y="349.29605"
               x="-793.97986"
               id="tspan4189"
               sodipodi:role="line">SIMPLE MORROWIND MOD MANAGER</tspan></text>
        </g>
      </g>
    </g>
    <g
       id="g3439"
       inkscape:export-filename="D:\ModsMorrowind\Keening\Resource\splash.png"
       inkscape:export-xdpi="60.029198"
       inkscape:export-ydpi="60.029198">
      <rect
         ry="20.203051"
         style="fill:url(#linearGradient3426);fill-opacity:1;stroke:none"
         id="rect3393"
         width="676.57874"
         height="245.88034"
         x="32.530991"
         y="363.40146" />
      <g
         transform="matrix(1.3318288,0,0,1.3318288,981.94416,-203.19787)"
         id="g3582">
        <g
           id="g3528"
           transform="matrix(0.61322671,0,0,0.61322671,-372.04995,70.452844)">
          <path
             id="path3480"
             d="m -390.17773,652.35156 a 77.334343,77.334343 0 0 0 -26.83399,7.24024 l 5.28125,9.14648 -10.82422,6.25 -5.27343,-9.13281 a 77.334343,77.334343 0 0 0 -19.69336,19.60547 l 9.18945,5.30468 -6.25,10.82618 -9.11914,-5.26368 a 77.334343,77.334343 0 0 0 -7.2168,26.81446 l 10.56055,0 0,12.5 -10.58594,0 a 77.334343,77.334343 0 0 0 7.22852,26.82226 l 9.13281,-5.27148 6.25,10.82617 -9.12695,5.26953 a 77.334343,77.334343 0 0 0 19.5957,19.70117 l 5.30859,-9.19335 10.82422,6.25 -5.27148,9.13085 a 77.334343,77.334343 0 0 0 26.82422,7.23438 l 0,-10.5918 12.5,0 0,10.62305 a 77.334343,77.334343 0 0 0 26.8457,-7.22656 l -5.29492,-9.16992 10.82617,-6.25 5.29297,9.16601 a 77.334343,77.334343 0 0 0 19.71679,-19.61133 l -9.23437,-5.33203 6.25,-10.82617 9.16992,5.29297 a 77.334343,77.334343 0 0 0 7.23242,-26.84375 l -10.62695,0 0,-12.5 10.65039,0 a 77.334343,77.334343 0 0 0 -7.24023,-26.85352 l -9.18555,5.30274 -6.25,-10.82618 9.17383,-5.29687 a 77.334343,77.334343 0 0 0 -19.6211,-19.70703 l -5.32812,9.22656 -10.82617,-6.25 5.28711,-9.15625 a 77.334343,77.334343 0 0 0 -26.83789,-7.21289 l 0,10.5957 -12.5,0 0,-10.61328 z"
             style="fill:url(#radialGradient3544);fill-opacity:1;stroke:none"
             inkscape:connector-curvature="0" />
          <g
             transform="matrix(0.99751119,-0.07050837,0.07050837,0.99751119,-51.250324,-25.427314)"
             id="g3520">
            <g
               transform="matrix(0.38382646,0,0,0.38382646,-343.03466,631.05297)"
               id="g3508"
               style="fill:#ffffff;stroke:none">
              <path
                 style="fill:#ffffff;fill-opacity:1;fill-rule:evenodd;stroke:none;stroke-width:0.50718534px;stroke-linecap:butt;stroke-linejoin:miter;stroke-opacity:1"
                 d="m -139.95943,259.05164 21.01196,24.99699 66.65865,-53.61674 67.020917,-64.12272 14.128739,-30.79339 -34.0538751,11.59281 -63.0358959,49.6317 z"
                 id="path3510"
                 inkscape:connector-curvature="0" />
              <path
                 style="fill:#ffffff;fill-opacity:1;fill-rule:evenodd;stroke:none;stroke-width:0.50718534px;stroke-linecap:butt;stroke-linejoin:miter;stroke-opacity:1"
                 d="m -62.250965,193.11767 -16.846085,4.89057 -12.860912,10.68754 -8.513188,-4.16644 2.897495,8.69446 -17.388925,15.7594 -1.08668,-1.63052 1.8118,-1.63052 -11.0501,-5.61471 3.26104,11.77324 2.71721,-1.44924 0.72412,1.26797 -20.83125,17.93276 -2.36951,-3.31156 2.04955,-1.40863 -15.88224,-12.03971 8.32497,18.31514 1.79397,-1.53642 2.56169,2.81726 -12.55284,10.24673 -3.2016,14.4736 2.17732,4.09909 -7.04512,5.25115 c 0.66722,4.44303 -0.86902,6.3155 -2.17733,8.45375 -14.75356,13.93079 -30.29965,27.56347 -47.77448,40.47379 -30.8947,-4.53212 -30.55264,10.50598 -34.22412,23.02938 20.89826,-28.35106 49.03731,5.88334 14.85301,18.47661 17.07333,1.88578 30.67176,-1.3167 28.80059,-27.17107 18.18657,-18.35449 32.0653,-30.00693 47.45849,-44.01616 3.43643,-2.15292 5.87153,-0.30106 8.69446,0 l 6.88366,-6.5211 2.35464,1.08669 13.76632,-0.54285 12.31708,-11.23039 3.07976,2.89749 -2.17336,1.99308 17.38892,12.1358 -9.41958,-18.47561 -1.99209,0.9054 -2.89848,-2.53593 21.012528,-18.29532 1.267963,1.63052 -1.630525,2.7172 10.143707,3.80389 -3.079761,-10.50626 -1.810814,1.26796 -1.811798,-2.35464 17.932765,-15.03429 9.057022,5.43442 -3.261044,-10.86883 13.042195,-10.32498 6.339817,-15.39585 -34.41629,26.80752 -19.200733,-22.09823 32.786763,-29.16315 z m -40.213255,37.32072 6.276413,13.96047 11.911918,7.04512 -32.405371,26.00118 c -0.86756,-9.51972 -0.65961,-19.89179 -19.08483,-15.49788 l 33.30187,-31.50889 z m -44.06074,34.07057 6.4042,0 -1.28084,5.89108 -6.4042,1.92175 1.28084,-7.81283 z m 17.03529,19.72475 5.12336,0.12779 0,7.55726 -7.3007,0.12778 2.17734,-7.81283 z"
                 id="path3512"
                 inkscape:connector-curvature="0" />
            </g>
            <g
               transform="matrix(-0.42554534,0,0,-0.42554534,-515.75846,842.57302)"
               id="g3514">
              <path
                 inkscape:connector-curvature="0"
                 style="fill:#ffffff;fill-opacity:1;stroke:none"
                 d="m -307.17932,136.14863 a 129.5843,129.5843 0 0 0 -129.58495,129.58267 129.5843,129.5843 0 0 0 18.54871,66.5047 l 8.17478,-8.93831 a 118.01427,118.01427 0 0 1 -15.15169,-57.56639 118.01427,118.01427 0 0 1 118.01315,-118.01315 118.01427,118.01427 0 0 1 60.1793,16.66732 l 9.25607,-7.93475 a 129.5843,129.5843 0 0 0 -69.43537,-20.30209 z m 119.78938,80.5454 -10.39222,5.491 a 118.01427,118.01427 0 0 1 8.61827,43.54627 118.01427,118.01427 0 0 1 -118.01543,118.01543 118.01427,118.01427 0 0 1 -71.52935,-24.33461 l -11.17176,5.93677 a 129.5843,129.5843 0 0 0 82.70111,29.96736 129.5843,129.5843 0 0 0 129.58495,-129.58495 129.5843,129.5843 0 0 0 -9.79557,-49.03727 z"
                 id="path3516" />
              <path
                 inkscape:connector-curvature="0"
                 style="fill:#ffffff;fill-opacity:1;stroke:none"
                 d="m -307.17932,158.13095 a 107.60128,107.60128 0 0 0 -107.60036,107.60035 107.60128,107.60128 0 0 0 12.14787,49.46933 l 6.9472,-7.59186 a 98.013034,98.013034 0 0 1 -9.50753,-41.87747 98.013034,98.013034 0 0 1 98.01282,-98.01282 98.013034,98.013034 0 0 1 43.91203,10.60938 l 7.85017,-6.73002 a 107.60128,107.60128 0 0 0 -51.7622,-13.46689 z m 100.16853,68.93014 -8.38967,4.43258 a 98.013034,98.013034 0 0 1 6.23624,34.23763 98.013034,98.013034 0 0 1 -98.0151,98.01282 98.013034,98.013034 0 0 1 -51.68219,-14.87509 l -9.64469,5.12524 a 107.60128,107.60128 0 0 0 61.32688,19.33967 107.60128,107.60128 0 0 0 107.60264,-107.60264 107.60128,107.60128 0 0 0 -7.43411,-38.67021 z"
                 id="path3518" />
            </g>
          </g>
        </g>
        <g
           id="g3574"
           transform="translate(6.0609154,22.680798)">
          <text
             sodipodi:linespacing="125%"
             id="text3476"
             y="518.95465"
             x="-548.18347"
             style="font-style:normal;font-variant:normal;font-weight:normal;font-stretch:normal;font-size:89.47026825px;line-height:125%;font-family:Narkisim;-inkscape-font-specification:'Narkisim, Normal';text-align:start;letter-spacing:0px;word-spacing:0px;writing-mode:lr-tb;text-anchor:start;fill:#000000;fill-opacity:1;stroke:none;stroke-width:1px;stroke-linecap:butt;stroke-linejoin:miter;stroke-opacity:1"
             xml:space="preserve"><tspan
               y="518.95465"
               x="-548.18347"
               id="tspan3478"
               sodipodi:role="line">Keening</tspan></text>
          <g
             id="g3569">
            <rect
               style="fill:#000000;stroke:none"
               id="rect3567"
               width="230.44643"
               height="9.2857141"
               x="-542.88141"
               y="522.61469" />
            <text
               sodipodi:linespacing="125%"
               id="text3422"
               y="529.81689"
               x="-540.35809"
               style="font-style:normal;font-variant:normal;font-weight:normal;font-stretch:normal;font-size:6.68927383px;line-height:125%;font-family:Narkisim;-inkscape-font-specification:'Narkisim, Normal';text-align:start;letter-spacing:0px;word-spacing:0px;writing-mode:lr-tb;text-anchor:start;fill:#ffffff;fill-opacity:1;stroke:none;stroke-width:1px;stroke-linecap:butt;stroke-linejoin:miter;stroke-opacity:1"
               xml:space="preserve"><tspan
                 y="529.81689"
                 x="-540.35809"
                 id="tspan3424"
                 sodipodi:role="line">SIMPLE MORROWIND MOD MANAGER</tspan></text>
          </g>
        </g>
      </g>
    </g>
    <g
       transform="matrix(1.0141553,0,0,1.0141553,779.97757,81.881447)"
       id="g3602"
       inkscape:export-xdpi="72.601524"
       inkscape:export-ydpi="72.601524">
      <path
         inkscape:connector-curvature="0"
         style="fill:url(#radialGradient3634);fill-opacity:1;stroke:none"
         d="m -390.17773,652.35156 a 77.334343,77.334343 0 0 0 -26.83399,7.24024 l 5.28125,9.14648 -10.82422,6.25 -5.27343,-9.13281 a 77.334343,77.334343 0 0 0 -19.69336,19.60547 l 9.18945,5.30468 -6.25,10.82618 -9.11914,-5.26368 a 77.334343,77.334343 0 0 0 -7.2168,26.81446 l 10.56055,0 0,12.5 -10.58594,0 a 77.334343,77.334343 0 0 0 7.22852,26.82226 l 9.13281,-5.27148 6.25,10.82617 -9.12695,5.26953 a 77.334343,77.334343 0 0 0 19.5957,19.70117 l 5.30859,-9.19335 10.82422,6.25 -5.27148,9.13085 a 77.334343,77.334343 0 0 0 26.82422,7.23438 l 0,-10.5918 12.5,0 0,10.62305 a 77.334343,77.334343 0 0 0 26.8457,-7.22656 l -5.29492,-9.16992 10.82617,-6.25 5.29297,9.16601 a 77.334343,77.334343 0 0 0 19.71679,-19.61133 l -9.23437,-5.33203 6.25,-10.82617 9.16992,5.29297 a 77.334343,77.334343 0 0 0 7.23242,-26.84375 l -10.62695,0 0,-12.5 10.65039,0 a 77.334343,77.334343 0 0 0 -7.24023,-26.85352 l -9.18555,5.30274 -6.25,-10.82618 9.17383,-5.29687 a 77.334343,77.334343 0 0 0 -19.6211,-19.70703 l -5.32812,9.22656 -10.82617,-6.25 5.28711,-9.15625 a 77.334343,77.334343 0 0 0 -26.83789,-7.21289 l 0,10.5957 -12.5,0 0,-10.61328 z"
         id="path3604" />
      <g
         id="g3606"
         transform="matrix(0.99751119,-0.07050837,0.07050837,0.99751119,-51.250324,-25.427314)">
        <g
           style="fill:#ffffff;stroke:none"
           id="g3608"
           transform="matrix(0.38382646,0,0,0.38382646,-343.03466,631.05297)">
          <path
             inkscape:connector-curvature="0"
             id="path3610"
             d="m -139.95943,259.05164 21.01196,24.99699 66.65865,-53.61674 67.020917,-64.12272 14.128739,-30.79339 -34.0538751,11.59281 -63.0358959,49.6317 z"
             style="fill:#ffffff;fill-opacity:1;fill-rule:evenodd;stroke:none;stroke-width:0.50718534px;stroke-linecap:butt;stroke-linejoin:miter;stroke-opacity:1" />
          <path
             inkscape:connector-curvature="0"
             id="path3612"
             d="m -62.250965,193.11767 -16.846085,4.89057 -12.860912,10.68754 -8.513188,-4.16644 2.897495,8.69446 -17.388925,15.7594 -1.08668,-1.63052 1.8118,-1.63052 -11.0501,-5.61471 3.26104,11.77324 2.71721,-1.44924 0.72412,1.26797 -20.83125,17.93276 -2.36951,-3.31156 2.04955,-1.40863 -15.88224,-12.03971 8.32497,18.31514 1.79397,-1.53642 2.56169,2.81726 -12.55284,10.24673 -3.2016,14.4736 2.17732,4.09909 -7.04512,5.25115 c 0.66722,4.44303 -0.86902,6.3155 -2.17733,8.45375 -14.75356,13.93079 -30.29965,27.56347 -47.77448,40.47379 -30.8947,-4.53212 -30.55264,10.50598 -34.22412,23.02938 20.89826,-28.35106 49.03731,5.88334 14.85301,18.47661 17.07333,1.88578 30.67176,-1.3167 28.80059,-27.17107 18.18657,-18.35449 32.0653,-30.00693 47.45849,-44.01616 3.43643,-2.15292 5.87153,-0.30106 8.69446,0 l 6.88366,-6.5211 2.35464,1.08669 13.76632,-0.54285 12.31708,-11.23039 3.07976,2.89749 -2.17336,1.99308 17.38892,12.1358 -9.41958,-18.47561 -1.99209,0.9054 -2.89848,-2.53593 21.012528,-18.29532 1.267963,1.63052 -1.630525,2.7172 10.143707,3.80389 -3.079761,-10.50626 -1.810814,1.26796 -1.811798,-2.35464 17.932765,-15.03429 9.057022,5.43442 -3.261044,-10.86883 13.042195,-10.32498 6.339817,-15.39585 -34.41629,26.80752 -19.200733,-22.09823 32.786763,-29.16315 z m -40.213255,37.32072 6.276413,13.96047 11.911918,7.04512 -32.405371,26.00118 c -0.86756,-9.51972 -0.65961,-19.89179 -19.08483,-15.49788 l 33.30187,-31.50889 z m -44.06074,34.07057 6.4042,0 -1.28084,5.89108 -6.4042,1.92175 1.28084,-7.81283 z m 17.03529,19.72475 5.12336,0.12779 0,7.55726 -7.3007,0.12778 2.17734,-7.81283 z"
             style="fill:#ffffff;fill-opacity:1;fill-rule:evenodd;stroke:none;stroke-width:0.50718534px;stroke-linecap:butt;stroke-linejoin:miter;stroke-opacity:1" />
        </g>
        <g
           id="g3614"
           transform="matrix(-0.42554534,0,0,-0.42554534,-515.75846,842.57302)">
          <path
             id="path3616"
             d="m -307.17932,136.14863 a 129.5843,129.5843 0 0 0 -129.58495,129.58267 129.5843,129.5843 0 0 0 18.54871,66.5047 l 8.17478,-8.93831 a 118.01427,118.01427 0 0 1 -15.15169,-57.56639 118.01427,118.01427 0 0 1 118.01315,-118.01315 118.01427,118.01427 0 0 1 60.1793,16.66732 l 9.25607,-7.93475 a 129.5843,129.5843 0 0 0 -69.43537,-20.30209 z m 119.78938,80.5454 -10.39222,5.491 a 118.01427,118.01427 0 0 1 8.61827,43.54627 118.01427,118.01427 0 0 1 -118.01543,118.01543 118.01427,118.01427 0 0 1 -71.52935,-24.33461 l -11.17176,5.93677 a 129.5843,129.5843 0 0 0 82.70111,29.96736 129.5843,129.5843 0 0 0 129.58495,-129.58495 129.5843,129.5843 0 0 0 -9.79557,-49.03727 z"
             style="fill:#ffffff;fill-opacity:1;stroke:none"
             inkscape:connector-curvature="0" />
          <path
             id="path3618"
             d="m -307.17932,158.13095 a 107.60128,107.60128 0 0 0 -107.60036,107.60035 107.60128,107.60128 0 0 0 12.14787,49.46933 l 6.9472,-7.59186 a 98.013034,98.013034 0 0 1 -9.50753,-41.87747 98.013034,98.013034 0 0 1 98.01282,-98.01282 98.013034,98.013034 0 0 1 43.91203,10.60938 l 7.85017,-6.73002 a 107.60128,107.60128 0 0 0 -51.7622,-13.46689 z m 100.16853,68.93014 -8.38967,4.43258 a 98.013034,98.013034 0 0 1 6.23624,34.23763 98.013034,98.013034 0 0 1 -98.0151,98.01282 98.013034,98.013034 0 0 1 -51.68219,-14.87509 l -9.64469,5.12524 a 107.60128,107.60128 0 0 0 61.32688,19.33967 107.60128,107.60128 0 0 0 107.60264,-107.60264 107.60128,107.60128 0 0 0 -7.43411,-38.67021 z"
             style="fill:#ffffff;fill-opacity:1;stroke:none"
             inkscape:connector-curvature="0" />
        </g>
      </g>
    </g>
    <path
       style="fill:url(#radialGradient3476);fill-opacity:1;stroke:none"
       d="m 193.71492,733.42308 a 78.429036,78.429036 0 0 0 -27.21368,7.34322 l 5.3562,9.27543 -10.97781,6.33912 -5.34753,-9.26197 a 78.429036,78.429036 0 0 0 -19.9724,19.88294 l 9.31969,5.37926 -6.33909,10.97971 -9.24755,-5.33789 a 78.429036,78.429036 0 0 0 -7.31918,27.19346 l 10.71042,0 0,12.67727 -10.73642,0 a 78.429036,78.429036 0 0 0 7.33075,27.2021 l 9.26198,-5.34656 6.33909,10.97975 -9.25621,5.34369 a 78.429036,78.429036 0 0 0 19.87331,19.98008 l 5.38314,-9.32353 10.97781,6.33909 -5.3466,9.26005 a 78.429036,78.429036 0 0 0 27.20408,7.33652 l 0,-10.74218 12.67724,0 0,10.77389 a 78.429036,78.429036 0 0 0 27.22523,-7.32878 l -5.36965,-9.2995 10.97973,-6.33909 5.36771,9.29561 a 78.429036,78.429036 0 0 0 19.99548,-19.88869 l -9.36489,-5.40716 6.33912,-10.97975 9.29948,5.36774 a 78.429036,78.429036 0 0 0 7.33456,-27.22328 l -10.77774,0 0,-12.67727 10.80178,0 a 78.429036,78.429036 0 0 0 -7.34321,-27.23386 l -9.31487,5.37829 -6.33912,-10.97971 9.3043,-5.37156 a 78.429036,78.429036 0 0 0 -19.8993,-19.98586 l -5.4033,9.35719 -10.97973,-6.33912 5.36195,-9.28505 a 78.429036,78.429036 0 0 0 -27.21753,-7.31533 l 0,10.74601 -12.67724,0 0,-10.76428 z m 13.58327,27.21559 a 51.484264,51.484264 0 0 1 23.69644,9.81114 l -22.34806,22.34801 a 20.64345,20.64345 0 0 0 -1.34838,-0.55303 l 0,-31.60612 z m -14.42583,0.008 0,31.584 a 20.64345,20.64345 0 0 0 -1.34454,0.5713 l -22.34223,-22.34222 a 51.484264,51.484264 0 0 1 23.68677,-9.81308 z m -33.89806,20.00317 22.34997,22.34896 a 20.64345,20.64345 0 0 0 -0.55399,1.34842 l -31.60613,0 a 51.484264,51.484264 0 0 1 9.81015,-23.69738 z m 82.2104,0.0106 a 51.484264,51.484264 0 0 1 9.81404,23.6868 l -31.58496,0 a 20.64345,20.64345 0 0 0 -0.57033,-1.34554 l 22.34125,-22.34126 z m -41.09992,18.71246 a 12.187097,12.187097 0 0 1 12.18772,12.18772 12.187097,12.187097 0 0 1 -12.18772,12.18675 12.187097,12.187097 0 0 1 -12.18673,-12.18675 12.187097,12.187097 0 0 1 12.18673,-12.18772 z m -50.91393,19.40013 31.58594,0 a 20.64345,20.64345 0 0 0 0.57033,1.34554 l -22.34223,22.34224 a 51.484264,51.484264 0 0 1 -9.81404,-23.68778 z m 70.22944,0 31.60614,0 a 51.484264,51.484264 0 0 1 -9.81115,23.69738 L 218.8463,820.12145 a 20.64345,20.64345 0 0 0 0.55399,-1.34842 z m -10.75756,11.54525 22.34323,22.34224 a 51.484264,51.484264 0 0 1 -23.68777,9.81405 l 0,-31.58502 a 20.64345,20.64345 0 0 0 1.34454,-0.57127 z m -17.11875,0.005 a 20.64345,20.64345 0 0 0 1.34838,0.553 l 0,31.60713 a 51.484264,51.484264 0 0 1 -23.69834,-9.81118 l 22.34996,-22.34895 z"
       id="path3412"
       inkscape:connector-curvature="0"
       inkscape:export-xdpi="72.601318"
       inkscape:export-ydpi="72.601318" />
  </g>
</svg>
