<?xml version="1.0" encoding="UTF-8" standalone="no"?>
<!-- Created with Inkscape (http://www.inkscape.org/) -->

<svg
   xmlns:dc="http://purl.org/dc/elements/1.1/"
   xmlns:cc="http://creativecommons.org/ns#"
   xmlns:rdf="http://www.w3.org/1999/02/22-rdf-syntax-ns#"
   xmlns:svg="http://www.w3.org/2000/svg"
   xmlns="http://www.w3.org/2000/svg"
   xmlns:xlink="http://www.w3.org/1999/xlink"
   xmlns:sodipodi="http://sodipodi.sourceforge.net/DTD/sodipodi-0.dtd"
   xmlns:inkscape="http://www.inkscape.org/namespaces/inkscape"
   width="594mm"
   height="841mm"
   viewBox="0 0 2104.7244 2979.9213"
   id="svg2"
   version="1.1"
   inkscape:version="0.91 r13725"
   sodipodi:docname="images.svg">
  <defs
     id="defs4">
    <linearGradient
       inkscape:collect="always"
       id="linearGradient3418">
      <stop
         style="stop-color:#c83737;stop-opacity:1"
         offset="0"
         id="stop3420" />
      <stop
         style="stop-color:#501616;stop-opacity:1"
         offset="1"
         id="stop3422" />
    </linearGradient>
    <linearGradient
       id="linearGradient3429"
       inkscape:collect="always">
      <stop
         id="stop3431"
         offset="0"
         style="stop-color:#ff6600;stop-opacity:1" />
      <stop
         id="stop3433"
         offset="1"
         style="stop-color:#2b1100;stop-opacity:1" />
    </linearGradient>
    <linearGradient
       id="linearGradient3423"
       inkscape:collect="always">
      <stop
         id="stop3425"
         offset="0"
         style="stop-color:#aa0000;stop-opacity:1" />
      <stop
         id="stop3427"
         offset="1"
         style="stop-color:#000000;stop-opacity:1" />
    </linearGradient>
    <linearGradient
       id="linearGradient3433"
       inkscape:collect="always">
      <stop
         id="stop3435"
         offset="0"
         style="stop-color:#b3b3b3;stop-opacity:1" />
      <stop
         id="stop3437"
         offset="1"
         style="stop-color:#f9f9f9;stop-opacity:1" />
    </linearGradient>
    <linearGradient
       inkscape:collect="always"
       id="linearGradient3470">
      <stop
         style="stop-color:#3737c8;stop-opacity:1"
         offset="0"
         id="stop3472" />
      <stop
         style="stop-color:#0b0b28;stop-opacity:1"
         offset="1"
         id="stop3474" />
    </linearGradient>
    <linearGradient
       inkscape:collect="always"
       id="linearGradient3538">
      <stop
         style="stop-color:#d40000;stop-opacity:1"
         offset="0"
         id="stop3540" />
      <stop
         style="stop-color:#550000;stop-opacity:1"
         offset="1"
         id="stop3542" />
    </linearGradient>
    <linearGradient
       inkscape:collect="always"
       id="linearGradient4160">
      <stop
         style="stop-color:#cccccc;stop-opacity:1;"
         offset="0"
         id="stop4162" />
      <stop
         style="stop-color:#cccccc;stop-opacity:0;"
         offset="1"
         id="stop4164" />
    </linearGradient>
    <linearGradient
       inkscape:collect="always"
       xlink:href="#linearGradient4160"
       id="linearGradient4166"
       x1="-577.80725"
       y1="842.25049"
       x2="-577.80725"
       y2="349.29602"
       gradientUnits="userSpaceOnUse"
       gradientTransform="translate(-226.27417,16.162441)" />
    <linearGradient
       inkscape:collect="always"
       xlink:href="#linearGradient3433"
       id="linearGradient3426"
       gradientUnits="userSpaceOnUse"
       gradientTransform="matrix(0.54189218,0,0,0.49074419,691.5931,195.95227)"
       x1="-577.80725"
       y1="842.25049"
       x2="-577.80725"
       y2="349.29602" />
    <radialGradient
       inkscape:collect="always"
       xlink:href="#linearGradient3538"
       id="radialGradient3544"
       cx="-387.06836"
       cy="733.18591"
       fx="-387.06836"
       fy="733.18591"
       r="77.046875"
       gradientTransform="matrix(1.0619816,0,0,0.99998735,23.991136,0.00923026)"
       gradientUnits="userSpaceOnUse" />
    <radialGradient
       inkscape:collect="always"
       xlink:href="#linearGradient3538"
       id="radialGradient3634"
       gradientUnits="userSpaceOnUse"
       gradientTransform="matrix(1.0619816,0,0,0.99998735,23.991136,0.00923026)"
       cx="-387.06836"
       cy="733.18591"
       fx="-387.06836"
       fy="733.18591"
       r="77.046875" />
    <radialGradient
       inkscape:collect="always"
       xlink:href="#linearGradient3429"
       id="radialGradient3476"
       cx="-809.1322"
       cy="968.51953"
       fx="-809.1322"
       fy="968.51953"
       r="158.67679"
       gradientTransform="matrix(0.44216632,0,0,0.41590117,-350.42963,-46.86574)"
       gradientUnits="userSpaceOnUse" />
    <radialGradient
       inkscape:collect="always"
       xlink:href="#linearGradient3423"
       id="radialGradient3407"
       gradientUnits="userSpaceOnUse"
       gradientTransform="matrix(0.3716272,-0.09957721,0.09366222,0.34955215,-398.12869,-121.4916)"
       cx="-809.1322"
       cy="968.51953"
       fx="-809.1322"
       fy="968.51953"
       r="158.67679" />
    <radialGradient
       inkscape:collect="always"
       xlink:href="#linearGradient3470"
       id="radialGradient3411"
       gradientUnits="userSpaceOnUse"
       gradientTransform="matrix(0.25218213,-0.10958521,0.10307573,0.23720225,-439.7146,45.927759)"
       cx="-809.1322"
       cy="968.51953"
       fx="-809.1322"
       fy="968.51953"
       r="158.67679" />
    <radialGradient
       inkscape:collect="always"
       xlink:href="#linearGradient3418"
       id="radialGradient3424"
       cx="527.49835"
       cy="-897.50623"
       fx="527.49835"
       fy="-897.50623"
       r="840.00012"
       gradientTransform="matrix(1.2339657,9.2969118e-6,0,0.66382606,40.954543,-515.94774)"
       gradientUnits="userSpaceOnUse" />
  </defs>
  <sodipodi:namedview
     id="base"
     pagecolor="#ffffff"
     bordercolor="#666666"
     borderopacity="1.0"
     inkscape:pageopacity="0.0"
     inkscape:pageshadow="2"
     inkscape:zoom="0.35"
     inkscape:cx="676.01804"
     inkscape:cy="2090.6398"
     inkscape:document-units="px"
     inkscape:current-layer="layer1"
     showgrid="false"
     inkscape:window-width="1280"
     inkscape:window-height="748"
     inkscape:window-x="-6"
     inkscape:window-y="24"
     inkscape:window-maximized="1"
     showguides="false"
     units="mm" />
  <metadata
     id="metadata7">
    <rdf:RDF>
      <cc:Work
         rdf:about="">
        <dc:format>image/svg+xml</dc:format>
        <dc:type
           rdf:resource="http://purl.org/dc/dcmitype/StillImage" />
        <dc:title />
      </cc:Work>
    </rdf:RDF>
  </metadata>
  <g
     inkscape:label="Layer 1"
     inkscape:groupmode="layer"
     id="layer1"
     transform="translate(0,1927.5591)">
    <g
       id="g4155"
       transform="matrix(0.2515704,0,0,0.2515704,1736.5872,18.002293)"
       inkscape:export-xdpi="51.36306"
       inkscape:export-ydpi="51.36306">
      <circle
         r="223.57143"
         cy="260.21936"
         cx="-300.71429"
         id="path4258"
         style="fill:#800000;fill-opacity:1;stroke:none" />
      <g
         id="g4291">
        <g
           style="fill:#ffffff;stroke:none"
           id="g4232"
           transform="matrix(1.1704388,0,0,1.1704388,-172.6242,-39.959644)">
          <path
             inkscape:connector-curvature="0"
             id="path3357"
             d="m -139.95943,259.05164 21.01196,24.99699 66.65865,-53.61674 67.020917,-64.12272 14.128739,-30.79339 -34.0538751,11.59281 -63.0358959,49.6317 z"
             style="fill:#ffffff;fill-opacity:1;fill-rule:evenodd;stroke:none;stroke-width:0.50718534px;stroke-linecap:butt;stroke-linejoin:miter;stroke-opacity:1" />
          <path
             inkscape:connector-curvature="0"
             id="path3347"
             d="m -62.250965,193.11767 -16.846085,4.89057 -12.860912,10.68754 -8.513188,-4.16644 2.897495,8.69446 -17.388925,15.7594 -1.08668,-1.63052 1.8118,-1.63052 -11.0501,-5.61471 3.26104,11.77324 2.71721,-1.44924 0.72412,1.26797 -20.83125,17.93276 -2.36951,-3.31156 2.04955,-1.40863 -15.88224,-12.03971 8.32497,18.31514 1.79397,-1.53642 2.56169,2.81726 -12.55284,10.24673 -3.2016,14.4736 2.17732,4.09909 -7.04512,5.25115 c 0.66722,4.44303 -0.86902,6.3155 -2.17733,8.45375 -14.75356,13.93079 -30.29965,27.56347 -47.77448,40.47379 -30.8947,-4.53212 -30.55264,10.50598 -34.22412,23.02938 20.89826,-28.35106 49.03731,5.88334 14.85301,18.47661 17.07333,1.88578 30.67176,-1.3167 28.80059,-27.17107 18.18657,-18.35449 32.0653,-30.00693 47.45849,-44.01616 3.43643,-2.15292 5.87153,-0.30106 8.69446,0 l 6.88366,-6.5211 2.35464,1.08669 13.76632,-0.54285 12.31708,-11.23039 3.07976,2.89749 -2.17336,1.99308 17.38892,12.1358 -9.41958,-18.47561 -1.99209,0.9054 -2.89848,-2.53593 21.012528,-18.29532 1.267963,1.63052 -1.630525,2.7172 10.143707,3.80389 -3.079761,-10.50626 -1.810814,1.26796 -1.811798,-2.35464 17.932765,-15.03429 9.057022,5.43442 -3.261044,-10.86883 13.042195,-10.32498 6.339817,-15.39585 -34.41629,26.80752 -19.200733,-22.09823 32.786763,-29.16315 z m -40.213255,37.32072 6.276413,13.96047 11.911918,7.04512 -32.405371,26.00118 c -0.86756,-9.51972 -0.65961,-19.89179 -19.08483,-15.49788 l 33.30187,-31.50889 z m -44.06074,34.07057 6.4042,0 -1.28084,5.89108 -6.4042,1.92175 1.28084,-7.81283 z m 17.03529,19.72475 5.12336,0.12779 0,7.55726 -7.3007,0.12778 2.17734,-7.81283 z"
             style="fill:#ffffff;fill-opacity:1;fill-rule:evenodd;stroke:none;stroke-width:0.50718534px;stroke-linecap:butt;stroke-linejoin:miter;stroke-opacity:1" />
        </g>
        <g
           id="g4273"
           transform="matrix(-1.2976562,0,0,-1.2976562,-699.32744,605.04871)">
          <path
             id="circle3363"
             d="m -307.17932,136.14863 a 129.5843,129.5843 0 0 0 -129.58495,129.58267 129.5843,129.5843 0 0 0 18.54871,66.5047 l 8.17478,-8.93831 a 118.01427,118.01427 0 0 1 -15.15169,-57.56639 118.01427,118.01427 0 0 1 118.01315,-118.01315 118.01427,118.01427 0 0 1 60.1793,16.66732 l 9.25607,-7.93475 a 129.5843,129.5843 0 0 0 -69.43537,-20.30209 z m 119.78938,80.5454 -10.39222,5.491 a 118.01427,118.01427 0 0 1 8.61827,43.54627 118.01427,118.01427 0 0 1 -118.01543,118.01543 118.01427,118.01427 0 0 1 -71.52935,-24.33461 l -11.17176,5.93677 a 129.5843,129.5843 0 0 0 82.70111,29.96736 129.5843,129.5843 0 0 0 129.58495,-129.58495 129.5843,129.5843 0 0 0 -9.79557,-49.03727 z"
             style="fill:#ffffff;fill-opacity:1;stroke:none"
             inkscape:connector-curvature="0" />
          <path
             id="path3359"
             d="m -307.17932,158.13095 a 107.60128,107.60128 0 0 0 -107.60036,107.60035 107.60128,107.60128 0 0 0 12.14787,49.46933 l 6.9472,-7.59186 a 98.013034,98.013034 0 0 1 -9.50753,-41.87747 98.013034,98.013034 0 0 1 98.01282,-98.01282 98.013034,98.013034 0 0 1 43.91203,10.60938 l 7.85017,-6.73002 a 107.60128,107.60128 0 0 0 -51.7622,-13.46689 z m 100.16853,68.93014 -8.38967,4.43258 a 98.013034,98.013034 0 0 1 6.23624,34.23763 98.013034,98.013034 0 0 1 -98.0151,98.01282 98.013034,98.013034 0 0 1 -51.68219,-14.87509 l -9.64469,5.12524 a 107.60128,107.60128 0 0 0 61.32688,19.33967 107.60128,107.60128 0 0 0 107.60264,-107.60264 107.60128,107.60128 0 0 0 -7.43411,-38.67021 z"
             style="fill:#ffffff;fill-opacity:1;stroke:none"
             inkscape:connector-curvature="0" />
        </g>
      </g>
    </g>
    <g
       id="g4168"
       inkscape:export-xdpi="21.555353"
       inkscape:export-ydpi="21.555353"
       transform="matrix(0.26766749,0,0,0.26766749,1534.74,-68.342384)">
      <rect
         y="357.37726"
         x="-1442.4978"
         height="501.03568"
         width="1248.5486"
         id="rect4158"
         style="fill:url(#linearGradient4166);fill-opacity:1;stroke:none" />
      <g
         inkscape:export-ydpi="43.404366"
         inkscape:export-xdpi="43.404366"
         transform="translate(-203.70771,356.00206)"
         id="g4197">
        <g
           transform="matrix(0.65385577,0,0,0.65385577,-790.04989,81.747099)"
           id="g4165">
          <circle
             style="fill:#800000;fill-opacity:1;stroke:none"
             id="circle4167"
             cx="-300.71429"
             cy="260.21936"
             r="223.57143" />
          <g
             id="g4169">
            <g
               transform="matrix(1.1704388,0,0,1.1704388,-172.6242,-39.959644)"
               id="g4171"
               style="fill:#ffffff;stroke:none">
              <path
                 style="fill:#ffffff;fill-opacity:1;fill-rule:evenodd;stroke:none;stroke-width:0.50718534px;stroke-linecap:butt;stroke-linejoin:miter;stroke-opacity:1"
                 d="m -139.95943,259.05164 21.01196,24.99699 66.65865,-53.61674 67.020917,-64.12272 14.128739,-30.79339 -34.0538751,11.59281 -63.0358959,49.6317 z"
                 id="path4173"
                 inkscape:connector-curvature="0" />
              <path
                 style="fill:#ffffff;fill-opacity:1;fill-rule:evenodd;stroke:none;stroke-width:0.50718534px;stroke-linecap:butt;stroke-linejoin:miter;stroke-opacity:1"
                 d="m -62.250965,193.11767 -16.846085,4.89057 -12.860912,10.68754 -8.513188,-4.16644 2.897495,8.69446 -17.388925,15.7594 -1.08668,-1.63052 1.8118,-1.63052 -11.0501,-5.61471 3.26104,11.77324 2.71721,-1.44924 0.72412,1.26797 -20.83125,17.93276 -2.36951,-3.31156 2.04955,-1.40863 -15.88224,-12.03971 8.32497,18.31514 1.79397,-1.53642 2.56169,2.81726 -12.55284,10.24673 -3.2016,14.4736 2.17732,4.09909 -7.04512,5.25115 c 0.66722,4.44303 -0.86902,6.3155 -2.17733,8.45375 -14.75356,13.93079 -30.29965,27.56347 -47.77448,40.47379 -30.8947,-4.53212 -30.55264,10.50598 -34.22412,23.02938 20.89826,-28.35106 49.03731,5.88334 14.85301,18.47661 17.07333,1.88578 30.67176,-1.3167 28.80059,-27.17107 18.18657,-18.35449 32.0653,-30.00693 47.45849,-44.01616 3.43643,-2.15292 5.87153,-0.30106 8.69446,0 l 6.88366,-6.5211 2.35464,1.08669 13.76632,-0.54285 12.31708,-11.23039 3.07976,2.89749 -2.17336,1.99308 17.38892,12.1358 -9.41958,-18.47561 -1.99209,0.9054 -2.89848,-2.53593 21.012528,-18.29532 1.267963,1.63052 -1.630525,2.7172 10.143707,3.80389 -3.079761,-10.50626 -1.810814,1.26796 -1.811798,-2.35464 17.932765,-15.03429 9.057022,5.43442 -3.261044,-10.86883 13.042195,-10.32498 6.339817,-15.39585 -34.41629,26.80752 -19.200733,-22.09823 32.786763,-29.16315 z m -40.213255,37.32072 6.276413,13.96047 11.911918,7.04512 -32.405371,26.00118 c -0.86756,-9.51972 -0.65961,-19.89179 -19.08483,-15.49788 l 33.30187,-31.50889 z m -44.06074,34.07057 6.4042,0 -1.28084,5.89108 -6.4042,1.92175 1.28084,-7.81283 z m 17.03529,19.72475 5.12336,0.12779 0,7.55726 -7.3007,0.12778 2.17734,-7.81283 z"
                 id="path4175"
                 inkscape:connector-curvature="0" />
            </g>
            <g
               transform="matrix(-1.2976562,0,0,-1.2976562,-699.32744,605.04871)"
               id="g4177">
              <path
                 inkscape:connector-curvature="0"
                 style="fill:#ffffff;fill-opacity:1;stroke:none"
                 d="m -307.17932,136.14863 a 129.5843,129.5843 0 0 0 -129.58495,129.58267 129.5843,129.5843 0 0 0 18.54871,66.5047 l 8.17478,-8.93831 a 118.01427,118.01427 0 0 1 -15.15169,-57.56639 118.01427,118.01427 0 0 1 118.01315,-118.01315 118.01427,118.01427 0 0 1 60.1793,16.66732 l 9.25607,-7.93475 a 129.5843,129.5843 0 0 0 -69.43537,-20.30209 z m 119.78938,80.5454 -10.39222,5.491 a 118.01427,118.01427 0 0 1 8.61827,43.54627 118.01427,118.01427 0 0 1 -118.01543,118.01543 118.01427,118.01427 0 0 1 -71.52935,-24.33461 l -11.17176,5.93677 a 129.5843,129.5843 0 0 0 82.70111,29.96736 129.5843,129.5843 0 0 0 129.58495,-129.58495 129.5843,129.5843 0 0 0 -9.79557,-49.03727 z"
                 id="path4179" />
              <path
                 inkscape:connector-curvature="0"
                 style="fill:#ffffff;fill-opacity:1;stroke:none"
                 d="m -307.17932,158.13095 a 107.60128,107.60128 0 0 0 -107.60036,107.60035 107.60128,107.60128 0 0 0 12.14787,49.46933 l 6.9472,-7.59186 a 98.013034,98.013034 0 0 1 -9.50753,-41.87747 98.013034,98.013034 0 0 1 98.01282,-98.01282 98.013034,98.013034 0 0 1 43.91203,10.60938 l 7.85017,-6.73002 a 107.60128,107.60128 0 0 0 -51.7622,-13.46689 z m 100.16853,68.93014 -8.38967,4.43258 a 98.013034,98.013034 0 0 1 6.23624,34.23763 98.013034,98.013034 0 0 1 -98.0151,98.01282 98.013034,98.013034 0 0 1 -51.68219,-14.87509 l -9.64469,5.12524 a 107.60128,107.60128 0 0 0 61.32688,19.33967 107.60128,107.60128 0 0 0 107.60264,-107.60264 107.60128,107.60128 0 0 0 -7.43411,-38.67021 z"
                 id="path4181" />
            </g>
          </g>
        </g>
        <g
           id="g4191"
           transform="matrix(0.78707311,0,0,0.78707311,-169.84262,57.640881)">
          <text
             sodipodi:linespacing="125%"
             id="text4183"
             y="299.12643"
             x="-807.95221"
             style="font-style:normal;font-variant:normal;font-weight:normal;font-stretch:normal;font-size:266.89419556px;line-height:125%;font-family:'Bell MT';-inkscape-font-specification:'Bell MT, Normal';text-align:start;letter-spacing:0px;word-spacing:0px;writing-mode:lr-tb;text-anchor:start;fill:#000000;fill-opacity:1;stroke:none;stroke-width:1px;stroke-linecap:butt;stroke-linejoin:miter;stroke-opacity:1"
             xml:space="preserve"><tspan
               y="299.12643"
               x="-807.95221"
               id="tspan4185"
               sodipodi:role="line">Keening</tspan></text>
          <text
             sodipodi:linespacing="125%"
             id="text4187"
             y="349.29605"
             x="-793.97986"
             style="font-style:normal;font-variant:normal;font-weight:normal;font-stretch:normal;font-size:40px;line-height:125%;font-family:'Bell MT';-inkscape-font-specification:'Bell MT, Normal';text-align:start;letter-spacing:0px;word-spacing:0px;writing-mode:lr-tb;text-anchor:start;fill:#000000;fill-opacity:1;stroke:none;stroke-width:1px;stroke-linecap:butt;stroke-linejoin:miter;stroke-opacity:1"
             xml:space="preserve"><tspan
               y="349.29605"
               x="-793.97986"
               id="tspan4189"
               sodipodi:role="line">SIMPLE MORROWIND MOD MANAGER</tspan></text>
        </g>
      </g>
    </g>
    <g
       id="g3439"
       inkscape:export-filename="D:\ModsMorrowind\Keening\Resource\splash.png"
       inkscape:export-xdpi="60.029198"
       inkscape:export-ydpi="60.029198"
       transform="matrix(0.39575719,0,0,0.39575719,1153.9425,59.582721)">
      <rect
         ry="20.203051"
         style="fill:url(#linearGradient3426);fill-opacity:1;stroke:none"
         id="rect3393"
         width="676.57874"
         height="245.88034"
         x="32.530991"
         y="363.40146" />
      <g
         transform="matrix(1.3318288,0,0,1.3318288,981.94416,-203.19787)"
         id="g3582">
        <g
           id="g3528"
           transform="matrix(0.61322671,0,0,0.61322671,-372.04995,70.452844)">
          <path
             id="path3480"
             d="m -390.17773,652.35156 a 77.334343,77.334343 0 0 0 -26.83399,7.24024 l 5.28125,9.14648 -10.82422,6.25 -5.27343,-9.13281 a 77.334343,77.334343 0 0 0 -19.69336,19.60547 l 9.18945,5.30468 -6.25,10.82618 -9.11914,-5.26368 a 77.334343,77.334343 0 0 0 -7.2168,26.81446 l 10.56055,0 0,12.5 -10.58594,0 a 77.334343,77.334343 0 0 0 7.22852,26.82226 l 9.13281,-5.27148 6.25,10.82617 -9.12695,5.26953 a 77.334343,77.334343 0 0 0 19.5957,19.70117 l 5.30859,-9.19335 10.82422,6.25 -5.27148,9.13085 a 77.334343,77.334343 0 0 0 26.82422,7.23438 l 0,-10.5918 12.5,0 0,10.62305 a 77.334343,77.334343 0 0 0 26.8457,-7.22656 l -5.29492,-9.16992 10.82617,-6.25 5.29297,9.16601 a 77.334343,77.334343 0 0 0 19.71679,-19.61133 l -9.23437,-5.33203 6.25,-10.82617 9.16992,5.29297 a 77.334343,77.334343 0 0 0 7.23242,-26.84375 l -10.62695,0 0,-12.5 10.65039,0 a 77.334343,77.334343 0 0 0 -7.24023,-26.85352 l -9.18555,5.30274 -6.25,-10.82618 9.17383,-5.29687 a 77.334343,77.334343 0 0 0 -19.6211,-19.70703 l -5.32812,9.22656 -10.82617,-6.25 5.28711,-9.15625 a 77.334343,77.334343 0 0 0 -26.83789,-7.21289 l 0,10.5957 -12.5,0 0,-10.61328 z"
             style="fill:url(#radialGradient3544);fill-opacity:1;stroke:none"
             inkscape:connector-curvature="0" />
          <g
             transform="matrix(0.99751119,-0.07050837,0.07050837,0.99751119,-51.250324,-25.427314)"
             id="g3520">
            <g
               transform="matrix(0.38382646,0,0,0.38382646,-343.03466,631.05297)"
               id="g3508"
               style="fill:#ffffff;stroke:none">
              <path
                 style="fill:#ffffff;fill-opacity:1;fill-rule:evenodd;stroke:none;stroke-width:0.50718534px;stroke-linecap:butt;stroke-linejoin:miter;stroke-opacity:1"
                 d="m -139.95943,259.05164 21.01196,24.99699 66.65865,-53.61674 67.020917,-64.12272 14.128739,-30.79339 -34.0538751,11.59281 -63.0358959,49.6317 z"
                 id="path3510"
                 inkscape:connector-curvature="0" />
              <path
                 style="fill:#ffffff;fill-opacity:1;fill-rule:evenodd;stroke:none;stroke-width:0.50718534px;stroke-linecap:butt;stroke-linejoin:miter;stroke-opacity:1"
                 d="m -62.250965,193.11767 -16.846085,4.89057 -12.860912,10.68754 -8.513188,-4.16644 2.897495,8.69446 -17.388925,15.7594 -1.08668,-1.63052 1.8118,-1.63052 -11.0501,-5.61471 3.26104,11.77324 2.71721,-1.44924 0.72412,1.26797 -20.83125,17.93276 -2.36951,-3.31156 2.04955,-1.40863 -15.88224,-12.03971 8.32497,18.31514 1.79397,-1.53642 2.56169,2.81726 -12.55284,10.24673 -3.2016,14.4736 2.17732,4.09909 -7.04512,5.25115 c 0.66722,4.44303 -0.86902,6.3155 -2.17733,8.45375 -14.75356,13.93079 -30.29965,27.56347 -47.77448,40.47379 -30.8947,-4.53212 -30.55264,10.50598 -34.22412,23.02938 20.89826,-28.35106 49.03731,5.88334 14.85301,18.47661 17.07333,1.88578 30.67176,-1.3167 28.80059,-27.17107 18.18657,-18.35449 32.0653,-30.00693 47.45849,-44.01616 3.43643,-2.15292 5.87153,-0.30106 8.69446,0 l 6.88366,-6.5211 2.35464,1.08669 13.76632,-0.54285 12.31708,-11.23039 3.07976,2.89749 -2.17336,1.99308 17.38892,12.1358 -9.41958,-18.47561 -1.99209,0.9054 -2.89848,-2.53593 21.012528,-18.29532 1.267963,1.63052 -1.630525,2.7172 10.143707,3.80389 -3.079761,-10.50626 -1.810814,1.26796 -1.811798,-2.35464 17.932765,-15.03429 9.057022,5.43442 -3.261044,-10.86883 13.042195,-10.32498 6.339817,-15.39585 -34.41629,26.80752 -19.200733,-22.09823 32.786763,-29.16315 z m -40.213255,37.32072 6.276413,13.96047 11.911918,7.04512 -32.405371,26.00118 c -0.86756,-9.51972 -0.65961,-19.89179 -19.08483,-15.49788 l 33.30187,-31.50889 z m -44.06074,34.07057 6.4042,0 -1.28084,5.89108 -6.4042,1.92175 1.28084,-7.81283 z m 17.03529,19.72475 5.12336,0.12779 0,7.55726 -7.3007,0.12778 2.17734,-7.81283 z"
                 id="path3512"
                 inkscape:connector-curvature="0" />
            </g>
            <g
               transform="matrix(-0.42554534,0,0,-0.42554534,-515.75846,842.57302)"
               id="g3514">
              <path
                 inkscape:connector-curvature="0"
                 style="fill:#ffffff;fill-opacity:1;stroke:none"
                 d="m -307.17932,136.14863 a 129.5843,129.5843 0 0 0 -129.58495,129.58267 129.5843,129.5843 0 0 0 18.54871,66.5047 l 8.17478,-8.93831 a 118.01427,118.01427 0 0 1 -15.15169,-57.56639 118.01427,118.01427 0 0 1 118.01315,-118.01315 118.01427,118.01427 0 0 1 60.1793,16.66732 l 9.25607,-7.93475 a 129.5843,129.5843 0 0 0 -69.43537,-20.30209 z m 119.78938,80.5454 -10.39222,5.491 a 118.01427,118.01427 0 0 1 8.61827,43.54627 118.01427,118.01427 0 0 1 -118.01543,118.01543 118.01427,118.01427 0 0 1 -71.52935,-24.33461 l -11.17176,5.93677 a 129.5843,129.5843 0 0 0 82.70111,29.96736 129.5843,129.5843 0 0 0 129.58495,-129.58495 129.5843,129.5843 0 0 0 -9.79557,-49.03727 z"
                 id="path3516" />
              <path
                 inkscape:connector-curvature="0"
                 style="fill:#ffffff;fill-opacity:1;stroke:none"
                 d="m -307.17932,158.13095 a 107.60128,107.60128 0 0 0 -107.60036,107.60035 107.60128,107.60128 0 0 0 12.14787,49.46933 l 6.9472,-7.59186 a 98.013034,98.013034 0 0 1 -9.50753,-41.87747 98.013034,98.013034 0 0 1 98.01282,-98.01282 98.013034,98.013034 0 0 1 43.91203,10.60938 l 7.85017,-6.73002 a 107.60128,107.60128 0 0 0 -51.7622,-13.46689 z m 100.16853,68.93014 -8.38967,4.43258 a 98.013034,98.013034 0 0 1 6.23624,34.23763 98.013034,98.013034 0 0 1 -98.0151,98.01282 98.013034,98.013034 0 0 1 -51.68219,-14.87509 l -9.64469,5.12524 a 107.60128,107.60128 0 0 0 61.32688,19.33967 107.60128,107.60128 0 0 0 107.60264,-107.60264 107.60128,107.60128 0 0 0 -7.43411,-38.67021 z"
                 id="path3518" />
            </g>
          </g>
        </g>
        <g
           id="g3574"
           transform="translate(6.0609154,22.680798)">
          <text
             sodipodi:linespacing="125%"
             id="text3476"
             y="518.95465"
             x="-548.18347"
             style="font-style:normal;font-variant:normal;font-weight:normal;font-stretch:normal;font-size:89.47026825px;line-height:125%;font-family:Narkisim;-inkscape-font-specification:'Narkisim, Normal';text-align:start;letter-spacing:0px;word-spacing:0px;writing-mode:lr-tb;text-anchor:start;fill:#000000;fill-opacity:1;stroke:none;stroke-width:1px;stroke-linecap:butt;stroke-linejoin:miter;stroke-opacity:1"
             xml:space="preserve"><tspan
               y="518.95465"
               x="-548.18347"
               id="tspan3478"
               sodipodi:role="line">Keening</tspan></text>
          <g
             id="g3569">
            <rect
               style="fill:#000000;stroke:none"
               id="rect3567"
               width="230.44643"
               height="9.2857141"
               x="-542.88141"
               y="522.61469" />
            <text
               sodipodi:linespacing="125%"
               id="text3422"
               y="529.81689"
               x="-540.35809"
               style="font-style:normal;font-variant:normal;font-weight:normal;font-stretch:normal;font-size:6.68927383px;line-height:125%;font-family:Narkisim;-inkscape-font-specification:'Narkisim, Normal';text-align:start;letter-spacing:0px;word-spacing:0px;writing-mode:lr-tb;text-anchor:start;fill:#ffffff;fill-opacity:1;stroke:none;stroke-width:1px;stroke-linecap:butt;stroke-linejoin:miter;stroke-opacity:1"
               xml:space="preserve"><tspan
                 y="529.81689"
                 x="-540.35809"
                 id="tspan3424"
                 sodipodi:role="line">SIMPLE MORROWIND MOD MANAGER</tspan></text>
          </g>
        </g>
      </g>
    </g>
    <g
       transform="matrix(1.0141553,0,0,1.0141553,2174.046,-214.06353)"
       id="g3602"
       inkscape:export-xdpi="72.601524"
       inkscape:export-ydpi="72.601524">
      <path
         inkscape:connector-curvature="0"
         style="fill:url(#radialGradient3634);fill-opacity:1;stroke:none"
         d="m -390.17773,652.35156 a 77.334343,77.334343 0 0 0 -26.83399,7.24024 l 5.28125,9.14648 -10.82422,6.25 -5.27343,-9.13281 a 77.334343,77.334343 0 0 0 -19.69336,19.60547 l 9.18945,5.30468 -6.25,10.82618 -9.11914,-5.26368 a 77.334343,77.334343 0 0 0 -7.2168,26.81446 l 10.56055,0 0,12.5 -10.58594,0 a 77.334343,77.334343 0 0 0 7.22852,26.82226 l 9.13281,-5.27148 6.25,10.82617 -9.12695,5.26953 a 77.334343,77.334343 0 0 0 19.5957,19.70117 l 5.30859,-9.19335 10.82422,6.25 -5.27148,9.13085 a 77.334343,77.334343 0 0 0 26.82422,7.23438 l 0,-10.5918 12.5,0 0,10.62305 a 77.334343,77.334343 0 0 0 26.8457,-7.22656 l -5.29492,-9.16992 10.82617,-6.25 5.29297,9.16601 a 77.334343,77.334343 0 0 0 19.71679,-19.61133 l -9.23437,-5.33203 6.25,-10.82617 9.16992,5.29297 a 77.334343,77.334343 0 0 0 7.23242,-26.84375 l -10.62695,0 0,-12.5 10.65039,0 a 77.334343,77.334343 0 0 0 -7.24023,-26.85352 l -9.18555,5.30274 -6.25,-10.82618 9.17383,-5.29687 a 77.334343,77.334343 0 0 0 -19.6211,-19.70703 l -5.32812,9.22656 -10.82617,-6.25 5.28711,-9.15625 a 77.334343,77.334343 0 0 0 -26.83789,-7.21289 l 0,10.5957 -12.5,0 0,-10.61328 z"
         id="path3604" />
      <g
         id="g3606"
         transform="matrix(0.99751119,-0.07050837,0.07050837,0.99751119,-51.250324,-25.427314)">
        <g
           style="fill:#ffffff;stroke:none"
           id="g3608"
           transform="matrix(0.38382646,0,0,0.38382646,-343.03466,631.05297)">
          <path
             inkscape:connector-curvature="0"
             id="path3610"
             d="m -139.95943,259.05164 21.01196,24.99699 66.65865,-53.61674 67.020917,-64.12272 14.128739,-30.79339 -34.0538751,11.59281 -63.0358959,49.6317 z"
             style="fill:#ffffff;fill-opacity:1;fill-rule:evenodd;stroke:none;stroke-width:0.50718534px;stroke-linecap:butt;stroke-linejoin:miter;stroke-opacity:1" />
          <path
             inkscape:connector-curvature="0"
             id="path3612"
             d="m -62.250965,193.11767 -16.846085,4.89057 -12.860912,10.68754 -8.513188,-4.16644 2.897495,8.69446 -17.388925,15.7594 -1.08668,-1.63052 1.8118,-1.63052 -11.0501,-5.61471 3.26104,11.77324 2.71721,-1.44924 0.72412,1.26797 -20.83125,17.93276 -2.36951,-3.31156 2.04955,-1.40863 -15.88224,-12.03971 8.32497,18.31514 1.79397,-1.53642 2.56169,2.81726 -12.55284,10.24673 -3.2016,14.4736 2.17732,4.09909 -7.04512,5.25115 c 0.66722,4.44303 -0.86902,6.3155 -2.17733,8.45375 -14.75356,13.93079 -30.29965,27.56347 -47.77448,40.47379 -30.8947,-4.53212 -30.55264,10.50598 -34.22412,23.02938 20.89826,-28.35106 49.03731,5.88334 14.85301,18.47661 17.07333,1.88578 30.67176,-1.3167 28.80059,-27.17107 18.18657,-18.35449 32.0653,-30.00693 47.45849,-44.01616 3.43643,-2.15292 5.87153,-0.30106 8.69446,0 l 6.88366,-6.5211 2.35464,1.08669 13.76632,-0.54285 12.31708,-11.23039 3.07976,2.89749 -2.17336,1.99308 17.38892,12.1358 -9.41958,-18.47561 -1.99209,0.9054 -2.89848,-2.53593 21.012528,-18.29532 1.267963,1.63052 -1.630525,2.7172 10.143707,3.80389 -3.079761,-10.50626 -1.810814,1.26796 -1.811798,-2.35464 17.932765,-15.03429 9.057022,5.43442 -3.261044,-10.86883 13.042195,-10.32498 6.339817,-15.39585 -34.41629,26.80752 -19.200733,-22.09823 32.786763,-29.16315 z m -40.213255,37.32072 6.276413,13.96047 11.911918,7.04512 -32.405371,26.00118 c -0.86756,-9.51972 -0.65961,-19.89179 -19.08483,-15.49788 l 33.30187,-31.50889 z m -44.06074,34.07057 6.4042,0 -1.28084,5.89108 -6.4042,1.92175 1.28084,-7.81283 z m 17.03529,19.72475 5.12336,0.12779 0,7.55726 -7.3007,0.12778 2.17734,-7.81283 z"
             style="fill:#ffffff;fill-opacity:1;fill-rule:evenodd;stroke:none;stroke-width:0.50718534px;stroke-linecap:butt;stroke-linejoin:miter;stroke-opacity:1" />
        </g>
        <g
           id="g3614"
           transform="matrix(-0.42554534,0,0,-0.42554534,-515.75846,842.57302)">
          <path
             id="path3616"
             d="m -307.17932,136.14863 a 129.5843,129.5843 0 0 0 -129.58495,129.58267 129.5843,129.5843 0 0 0 18.54871,66.5047 l 8.17478,-8.93831 a 118.01427,118.01427 0 0 1 -15.15169,-57.56639 118.01427,118.01427 0 0 1 118.01315,-118.01315 118.01427,118.01427 0 0 1 60.1793,16.66732 l 9.25607,-7.93475 a 129.5843,129.5843 0 0 0 -69.43537,-20.30209 z m 119.78938,80.5454 -10.39222,5.491 a 118.01427,118.01427 0 0 1 8.61827,43.54627 118.01427,118.01427 0 0 1 -118.01543,118.01543 118.01427,118.01427 0 0 1 -71.52935,-24.33461 l -11.17176,5.93677 a 129.5843,129.5843 0 0 0 82.70111,29.96736 129.5843,129.5843 0 0 0 129.58495,-129.58495 129.5843,129.5843 0 0 0 -9.79557,-49.03727 z"
             style="fill:#ffffff;fill-opacity:1;stroke:none"
             inkscape:connector-curvature="0" />
          <path
             id="path3618"
             d="m -307.17932,158.13095 a 107.60128,107.60128 0 0 0 -107.60036,107.60035 107.60128,107.60128 0 0 0 12.14787,49.46933 l 6.9472,-7.59186 a 98.013034,98.013034 0 0 1 -9.50753,-41.87747 98.013034,98.013034 0 0 1 98.01282,-98.01282 98.013034,98.013034 0 0 1 43.91203,10.60938 l 7.85017,-6.73002 a 107.60128,107.60128 0 0 0 -51.7622,-13.46689 z m 100.16853,68.93014 -8.38967,4.43258 a 98.013034,98.013034 0 0 1 6.23624,34.23763 98.013034,98.013034 0 0 1 -98.0151,98.01282 98.013034,98.013034 0 0 1 -51.68219,-14.87509 l -9.64469,5.12524 a 107.60128,107.60128 0 0 0 61.32688,19.33967 107.60128,107.60128 0 0 0 107.60264,-107.60264 107.60128,107.60128 0 0 0 -7.43411,-38.67021 z"
             style="fill:#ffffff;fill-opacity:1;stroke:none"
             inkscape:connector-curvature="0" />
        </g>
      </g>
    </g>
    <g
       id="g3435"
       inkscape:export-filename="D:\ModsMorrowind\Keening\Resource\btnlaunch.png"
       inkscape:export-xdpi="63.32"
       inkscape:export-ydpi="63.32"
       transform="translate(2334.2858,-74.285715)">
      <path
         inkscape:export-ydpi="72.601318"
         inkscape:export-xdpi="72.601318"
         inkscape:connector-curvature="0"
         id="path3412"
         d="m -712.93364,289.36927 a 66.240752,66.240752 0 0 0 -22.9846,6.20205 l 4.5238,7.83398 -9.2718,5.35399 -4.5164,-7.82261 a 66.240752,66.240752 0 0 0 -16.8686,16.79302 l 7.8714,4.5433 -5.354,9.2734 -7.8105,-4.50835 a 66.240752,66.240752 0 0 0 -6.1817,22.96745 l 9.046,0 0,10.70716 -9.068,0 a 66.240752,66.240752 0 0 0 6.1916,22.97475 l 7.8226,-4.51568 5.354,9.27344 -7.8179,4.51325 a 66.240752,66.240752 0 0 0 16.785,16.87507 l 4.5465,-7.8746 9.2718,5.35396 -4.5157,7.82099 a 66.240752,66.240752 0 0 0 22.9765,6.19639 l 0,-9.07279 10.7071,0 0,9.09957 a 66.240752,66.240752 0 0 0 22.9943,-6.18985 l -4.5352,-7.85431 9.2734,-5.35396 4.5335,7.85102 a 66.240752,66.240752 0 0 0 16.8881,-16.79788 l -7.9095,-4.56686 5.354,-9.27344 7.8542,4.53357 a 66.240752,66.240752 0 0 0 6.1948,-22.99264 l -9.1028,0 0,-10.70716 9.1231,0 a 66.240752,66.240752 0 0 0 -6.202,-23.00157 l -7.8673,4.54247 -5.354,-9.2734 7.8583,-4.53679 a 66.240752,66.240752 0 0 0 -16.8068,-16.87996 l -4.5636,7.90304 -9.2734,-5.35399 4.5287,-7.84211 a 66.240752,66.240752 0 0 0 -22.9878,-6.17848 l 0,9.07602 -10.7071,0 0,-9.09146 z m 11.4724,22.98615 a 43.483339,43.483339 0 0 1 20.0138,8.28644 l -18.8751,18.87501 a 17.435349,17.435349 0 0 0 -1.1387,-0.46709 l 0,-26.69436 z m -12.1841,0.007 0,26.67568 a 17.435349,17.435349 0 0 0 -1.1355,0.48251 l -18.8701,-18.87012 a 43.483339,43.483339 0 0 1 20.0056,-8.28807 z m -28.6301,16.89457 18.8766,18.87581 a 17.435349,17.435349 0 0 0 -0.4679,1.13887 l -26.6943,0 a 43.483339,43.483339 0 0 1 8.2856,-20.01468 z m 69.4345,0.009 a 43.483339,43.483339 0 0 1 8.2889,20.00575 l -26.6766,0 a 17.435349,17.435349 0 0 0 -0.4816,-1.13644 l 18.8693,-18.86931 z m -34.7128,15.80445 a 10.293158,10.293158 0 0 1 10.2937,10.29368 10.293158,10.293158 0 0 1 -10.2937,10.29287 10.293158,10.293158 0 0 1 -10.2929,-10.29287 10.293158,10.293158 0 0 1 10.2929,-10.29368 z m -43.0016,16.38524 26.6773,0 a 17.435349,17.435349 0 0 0 0.4817,1.13644 l -18.8701,18.87014 a 43.483339,43.483339 0 0 1 -8.2889,-20.00658 z m 59.3154,0 26.6944,0 a 43.483339,43.483339 0 0 1 -8.2865,20.01469 l -18.8758,-18.87582 a 17.435349,17.435349 0 0 0 0.4679,-1.13887 z m -9.0858,9.75106 18.871,18.87014 a 43.483339,43.483339 0 0 1 -20.0065,8.2889 l 0,-26.67655 a 17.435349,17.435349 0 0 0 1.1355,-0.48249 z m -14.4584,0.004 a 17.435349,17.435349 0 0 0 1.1388,0.46707 l 0,26.69521 a 43.483339,43.483339 0 0 1 -20.0154,-8.28647 l 18.8766,-18.87581 z"
         style="fill:url(#radialGradient3476);fill-opacity:1;stroke:none" />
      <path
         style="fill:url(#radialGradient3407);fill-opacity:1;stroke:none"
         d="m -627.081,242.74059 a 57.637257,57.637257 0 0 0 -17.9211,10.38883 l 5.5663,5.56546 -6.5869,6.58789 -5.5577,-5.55754 a 57.637257,57.637257 0 0 0 -10.3956,17.91286 l 7.6388,2.04586 -2.4115,8.99974 -7.5797,-2.0302 a 57.637257,57.637257 0 0 0 -0.023,20.6956 l 7.6029,-2.03719 2.4113,8.99904 -7.6213,2.04213 a 57.637257,57.637257 0 0 0 10.3778,17.91521 l 5.5577,-5.55696 6.5883,6.5883 -5.5542,5.55384 a 57.637257,57.637257 0 0 0 17.9075,10.40295 l 2.0479,-7.64225 8.9983,2.41182 -2.034,7.59025 a 57.637257,57.637257 0 0 0 20.7065,0.0335 l -2.0432,-7.6254 8.999,-2.41126 2.0492,7.64791 a 57.637257,57.637257 0 0 0 17.9321,-10.38077 l -5.5806,-5.57996 6.5883,-6.58824 5.5784,5.57758 a 57.637257,57.637257 0 0 0 10.411,-17.92136 l -7.6762,-2.05705 2.4115,-8.99979 7.6222,2.04153 a 57.637257,57.637257 0 0 0 0.029,-20.71969 l -7.6506,2.04998 -2.4113,-8.99904 7.6676,-2.05454 a 57.637257,57.637257 0 0 0 -10.3926,-17.9354 l -5.5892,5.58954 -6.5883,-6.58826 5.583,-5.58277 a 57.637257,57.637257 0 0 0 -17.9271,-10.40212 l -2.0557,7.66999 -8.9998,-2.41146 2.0402,-7.61094 a 57.637257,57.637257 0 0 0 -20.712,-0.0159 l 2.044,7.62812 -8.999,2.41126 -2.0474,-7.64109 z m 14.8187,16.73555 a 37.835627,37.835627 0 0 1 18.6872,2.45731 l -11.6133,20.11461 a 15.170808,15.170808 0 0 0 -1.0622,-0.13613 l -6.0117,-22.43579 z m -10.2388,2.74969 6.0074,22.42009 a 15.170808,15.170808 0 0 0 -0.8456,0.66126 l -20.1095,-11.61013 a 37.835627,37.835627 0 0 1 14.9477,-11.47122 z m -20.2579,20.64694 20.1161,11.61346 a 15.170808,15.170808 0 0 0 -0.1369,1.06258 l -22.4357,6.01164 a 37.835627,37.835627 0 0 1 2.4565,-18.68768 z m 58.3596,-15.62912 a 37.835627,37.835627 0 0 1 11.4718,14.94754 l -22.4208,6.00763 a 15.170808,15.170808 0 0 0 -0.6607,-0.84666 l 11.6097,-20.10851 z m -25.6159,21.10058 a 8.9562601,8.9562601 0 0 1 10.9698,6.33334 8.9562601,8.9562601 0 0 1 -6.3337,10.96903 8.9562601,8.9562601 0 0 1 -10.9688,-6.33286 8.9562601,8.9562601 0 0 1 6.3327,-10.96951 z m -32.4516,23.45541 22.4216,-6.00784 a 15.170808,15.170808 0 0 0 0.6607,0.84667 l -11.6101,20.10937 a 37.835627,37.835627 0 0 1 -11.4722,-14.9482 z m 49.8529,-13.35803 22.4358,-6.01165 a 37.835627,37.835627 0 0 1 -2.4572,18.68787 l -20.1154,-11.61366 a 15.170808,15.170808 0 0 0 0.1368,-1.06256 z m -5.4404,10.24163 20.1101,11.60996 a 37.835627,37.835627 0 0 1 -14.9482,11.47208 l -6.0076,-22.42082 a 15.170808,15.170808 0 0 0 0.8457,-0.66122 z m -12.1508,3.25993 a 15.170808,15.170808 0 0 0 1.0623,0.13609 l 6.0118,22.43651 a 37.835627,37.835627 0 0 1 -18.6885,-2.45698 l 11.6144,-20.11562 z"
         id="path3405"
         inkscape:connector-curvature="0"
         inkscape:export-xdpi="72.601318"
         inkscape:export-ydpi="72.601318" />
      <path
         inkscape:export-ydpi="72.601318"
         inkscape:export-xdpi="72.601318"
         inkscape:connector-curvature="0"
         id="path3409"
         d="m -563.13116,327.53566 a 41.192116,41.192116 0 0 0 -11.5718,9.23367 l 4.5216,3.34682 -3.961,5.35145 -4.5147,-3.34214 a 41.192116,41.192116 0 0 0 -5.4587,13.75825 l 5.6152,0.64039 -0.7552,6.61584 -5.5719,-0.63555 a 41.192116,41.192116 0 0 0 2.1667,14.63116 l 5.1593,-2.24194 2.6536,6.10664 -5.1717,2.24738 a 41.192116,41.192116 0 0 0 9.2252,11.56876 l 3.3423,-4.51417 5.3519,3.96203 -3.3402,4.51159 a 41.192116,41.192116 0 0 0 13.7553,5.46448 l 0.6415,-5.61795 6.61482,0.75566 -0.63713,5.57974 a 41.192116,41.192116 0 0 0 14.63995,-2.16046 l -2.24855,-5.17451 6.10659,-2.6536 2.2552,5.18979 a 41.192116,41.192116 0 0 0 11.58035,-9.22913 l -4.53317,-3.35558 3.96202,-5.35183 4.53139,3.35412 a 41.192116,41.192116 0 0 0 5.46871,-13.76589 l -5.64292,-0.64435 0.75529,-6.61589 5.60312,0.63908 a 41.192116,41.192116 0 0 0 -2.16532,-14.64876 l -5.19163,2.25601 -2.65363,-6.10665 5.20318,-2.26103 a 41.192116,41.192116 0 0 0 -9.23787,-11.58146 l -3.36114,4.54051 -5.35188,-3.962 3.3575,-4.53508 a 41.192116,41.192116 0 0 0 -13.76898,-5.46183 l -0.64412,5.63838 -6.61585,-0.75525 0.63933,-5.59501 a 41.192116,41.192116 0 0 0 -14.64196,2.1735 l 2.2494,5.17636 -6.1066,2.6536 -2.2532,-5.18515 z m 12.2399,10.26649 a 27.040314,27.040314 0 0 1 13.46822,-0.23414 l -6.08719,15.443 a 10.842253,10.842253 0 0 0 -0.76518,0.0158 l -6.61585,-15.22468 z m -6.9473,3.0236 6.6112,15.21404 a 10.842253,10.842253 0 0 0 -0.528,0.55661 l -15.4391,-6.08551 a 27.040314,27.040314 0 0 1 9.3559,-9.68514 z m -12.1415,16.73113 15.444,6.08717 a 10.842253,10.842253 0 0 0 0.015,0.76551 l -15.2246,6.61584 a 27.040314,27.040314 0 0 1 -0.2347,-13.46853 z m 39.603,-17.2032 a 27.040314,27.040314 0 0 1 9.68556,9.35566 l -15.21452,6.61144 a 10.842253,10.842253 0 0 0 -0.55632,-0.52877 l 6.08528,-15.43833 z m -15.88096,17.61693 a 6.4008478,6.4008478 0 0 1 8.42207,3.31965 6.4008478,6.4008478 0 0 1 -3.31999,8.42156 6.4008478,6.4008478 0 0 1 -8.42131,-3.31943 6.4008478,6.4008478 0 0 1 3.31923,-8.42178 z m -20.46444,20.00247 15.2151,-6.61166 a 10.842253,10.842253 0 0 0 0.5563,0.52877 l -6.0855,15.43898 a 27.040314,27.040314 0 0 1 -9.6859,-9.35609 z m 33.82964,-14.70059 15.22467,-6.61584 a 27.040314,27.040314 0 0 1 0.23432,13.46874 l -15.4436,-6.08739 a 10.842253,10.842253 0 0 0 -0.0154,-0.76551 z m -2.76527,7.81316 15.43945,6.08535 a 27.040314,27.040314 0 0 1 -9.35606,9.68577 l -6.61143,-15.21453 a 10.842253,10.842253 0 0 0 0.52804,-0.55659 z m -8.24497,3.58595 a 10.842253,10.842253 0 0 0 0.76525,-0.0158 l 6.61603,15.22517 a 27.040314,27.040314 0 0 1 -13.46918,0.23453 l 6.0879,-15.44384 z"
         style="fill:url(#radialGradient3411);fill-opacity:1;stroke:none" />
    </g>
    <path
       inkscape:connector-curvature="0"
       id="path3519"
       d="m 262.86918,-503.33751 a 122.9332,122.93321 0 0 0 -42.6566,11.51 l 8.3953,14.5389 -17.207,9.9356 -8.3821,-14.5182 a 122.9332,122.93321 0 0 0 -31.3059,31.1655 l 14.6086,8.4329 -9.9356,17.209 -14.4965,-8.367 a 122.9332,122.93321 0 0 0 -11.4713,42.6254 l 16.7868,0 0,19.8704 -16.8273,0 a 122.9332,122.93321 0 0 0 11.4901,42.6378 l 14.5182,-8.3802 9.9356,17.2098 -14.5087,8.3765 a 122.9332,122.93321 0 0 0 31.1495,31.3181 l 8.4386,-14.6143 17.207,9.9347 -8.3802,14.5154 a 122.9332,122.93321 0 0 0 42.6415,11.4995 l 0,-16.8368 19.8703,0 0,16.8867 a 122.9332,122.93321 0 0 0 42.67448,-11.4873 l -8.4169,-14.5775 17.2097,-9.9347 8.4133,14.5709 a 122.9332,122.93321 0 0 0 31.3425,-31.175 l -14.6793,-8.4762 9.9358,-17.2098 14.5765,8.4142 a 122.9332,122.93321 0 0 0 11.4967,-42.6718 l -16.8923,0 0,-19.8704 16.9301,0 a 122.9332,122.93321 0 0 0 -11.51,-42.6877 l -14.601,8.4293 -9.9358,-17.209 14.5832,-8.4207 a 122.9332,122.93321 0 0 0 -31.1899,-31.3265 l -8.4698,14.667 -17.2097,-9.9356 8.4046,-14.555 a 122.9332,122.93321 0 0 0 -42.66218,-11.4656 l 0,16.8434 -19.8703,0 0,-16.8717 z m 11.9131,34.8483 a 87.658686,87.658696 0 0 1 49.12528,16.4627 l -7.2553,4.5391 a 79.832015,79.832025 0 0 0 -49.42768,-13.0088 79.832015,79.832025 0 0 0 -74.0048,85.2632 79.832015,79.832025 0 0 0 7.8922,28.9732 l -6.7504,4.2009 a 87.658686,87.658696 0 0 1 -8.9492,-32.6221 87.658686,87.658696 0 0 1 81.2601,-93.6217 87.658686,87.658696 0 0 1 8.1098,-0.1865 z m 77.03948,8.0628 -7.2743,19.3493 -32.8132,36.1598 -2.3534,7.0988 -7.4937,6.8454 2.4524,6.4743 -5.746,-2.9177 -10.26728,9.9215 1.2041,1.3557 1.0466,-0.8498 2.3271,6.2613 -6.3377,-1.8785 0.8753,-1.7242 -0.8413,-0.9373 -12.0018,12.0385 1.873,1.4188 1.1739,-0.6369 6.528,10.8402 -11.1058,-6.6384 1.237,-1.3067 -1.9992,-1.6307 -7.0132,7.3645 -8.3557,0.9233 -1.4791,-0.5605 -3.9089,4.2651 c -1.731,-0.062 -3.293,-1.0842 -5.2919,0.3739 -8.766,9.1886 -16.7118,16.8775 -26.9909,28.8309 2.2511,15.6551 -5.8877,18.1893 -16.36,17.7761 20.2636,-9.1352 1.6646,-28.7607 -9.8349,-10.6065 1.6958,-7.78 0.841,-16.9179 19.8393,-15.4885 10.0802,-8.6093 18.9557,-17.5752 27.3357,-26.6885 0.7043,-1.3578 1.5582,-2.5628 0.961,-5.2382 l 4.0624,-3.4991 -1.5017,-2.4014 1.3256,-8.9466 7.1997,-6.7766 -1.6808,-1.6046 -1.0259,1.0119 -5.8544,-10.7882 10.1844,6.6438 -1.1871,0.9459 1.5846,1.9135 11.9066,-11.8105 -0.4946,-0.7405 -1.5912,0.9986 -2.492,-7.0253 6.967,2.9422 -1.0325,1.0702 0.732,0.9459 9.9046,-10.3398 -2.1368,-5.1666 5.3607,2.1688 7.3674,-7.0575 8.7439,-3.223 34.04648,-30.9357 20.2265,-8.5204 z m -76.32528,6.8398 a 72.788035,72.788044 0 0 1 34.52978,10.2418 l -6.2642,3.9182 a 66.301961,66.301971 0 0 0 -35.58308,-7.5718 66.301961,66.301971 0 0 0 -61.4633,70.8111 66.301961,66.301971 0 0 0 5.8402,22.806 l -5.4492,3.3907 a 72.788035,72.788044 0 0 1 -6.8606,-25.7389 72.788035,72.788044 0 0 1 67.475,-77.7404 72.788035,72.788044 0 0 1 7.7754,-0.1167 z m 69.10948,22.5525 a 87.658686,87.658696 0 0 1 15.6883,43.9916 87.658686,87.658696 0 0 1 -81.26008,93.6199 87.658686,87.658696 0 0 1 -47.8214,-10.3869 l 5.8667,-5.7959 a 79.832015,79.832025 0 0 0 41.4026,8.3764 79.832015,79.832025 0 0 0 74.00388,-85.2614 79.832015,79.832025 0 0 0 -12.9693,-38.1222 l 5.0893,-6.4215 z m -9.7029,12.2392 a 72.788035,72.788044 0 0 1 10.5565,32.801 72.788035,72.788044 0 0 1 -67.47398,77.7385 72.788035,72.788044 0 0 1 -35.5699,-6.6184 l 4.9763,-4.916 a 66.301961,66.301971 0 0 0 30.1366,5.0649 66.301961,66.301971 0 0 0 61.46138,-70.8121 66.301961,66.301971 0 0 0 -8.4121,-27.804 l 4.3252,-5.4539 z m -80.37828,44.1469 -3.8976,0.2752 -0.4437,4.8105 3.8156,-1.4452 0.5257,-3.6405 z m 10.4425,11.4045 -3.1231,0.1433 -0.9893,4.8481 4.4384,-0.3919 -0.326,-4.5995 z"
       style="fill:#000000;fill-opacity:1;stroke:none" />
    <g
       id="g3540"
       inkscape:export-xdpi="18.884365"
       inkscape:export-ydpi="18.884365">
      <text
         sodipodi:linespacing="125%"
         id="text3466"
         y="-343.50421"
         x="720.1192"
         style="font-style:normal;font-variant:normal;font-weight:normal;font-stretch:normal;font-size:180.34698486px;line-height:125%;font-family:Narkisim;-inkscape-font-specification:'Narkisim, Normal';text-align:start;letter-spacing:0px;word-spacing:0px;writing-mode:lr-tb;text-anchor:start;fill:#e6e6e6;fill-opacity:1;stroke:none;stroke-width:1px;stroke-linecap:butt;stroke-linejoin:miter;stroke-opacity:1"
         xml:space="preserve"><tspan
           y="-343.50421"
           x="720.1192"
           id="tspan3468"
           sodipodi:role="line">KEENING</tspan></text>
      <text
         xml:space="preserve"
         style="font-style:normal;font-variant:normal;font-weight:normal;font-stretch:normal;font-size:42.50250244px;line-height:125%;font-family:Narkisim;-inkscape-font-specification:'Narkisim, Normal';text-align:start;letter-spacing:0px;word-spacing:0px;writing-mode:lr-tb;text-anchor:start;fill:#e6e6e6;fill-opacity:1;stroke:none;stroke-width:1px;stroke-linecap:butt;stroke-linejoin:miter;stroke-opacity:1"
         x="725.85028"
         y="-279.48053"
         id="text3470"
         sodipodi:linespacing="125%"><tspan
           sodipodi:role="line"
           id="tspan3472"
           x="725.85028"
           y="-279.48053">SIMPLE MORROWIND MOD INSTALLER</tspan></text>
      <rect
         y="-327.73941"
         x="715.94574"
         height="3.0304568"
         width="743.47229"
         id="rect3455"
         style="fill:#e6e6e6;stroke:none" />
    </g>
    <g
       id="g3524"
       inkscape:export-xdpi="90"
       inkscape:export-ydpi="90">
      <rect
         y="-1624.4342"
         x="171.42845"
         height="1050.0001"
         width="1680.0002"
         id="rect3416"
         style="fill:url(#radialGradient3424);fill-opacity:1;stroke:none" />
      <g
         transform="translate(4.2857199,-2.3066406e-5)"
         id="g3515">
        <path
           style="fill:#ffffff;fill-opacity:1;stroke:none"
           d="m 733.64775,-1203.3375 a 104.29227,104.29227 0 0 0 -36.18838,9.7646 l 7.12226,12.3343 -14.59777,8.4291 -7.11108,-12.3168 a 104.29227,104.29227 0 0 0 -26.55885,26.4397 l 12.39342,7.1542 -8.42905,14.5996 -12.29827,-7.0983 a 104.29227,104.29227 0 0 0 -9.73187,36.1619 l 14.24136,0 0,16.8573 -14.27573,0 a 104.29227,104.29227 0 0 0 9.74777,36.1725 l 12.31674,-7.1095 8.42905,14.6002 -12.3087,7.1064 a 104.29227,104.29227 0 0 0 26.42619,26.5691 l 7.15902,-12.3983 14.59777,8.4283 -7.10942,12.3144 a 104.29227,104.29227 0 0 0 36.17554,9.75575 l 0,-14.28375 16.85728,0 0,14.32606 a 104.29227,104.29227 0 0 0 36.20361,-9.74546 l -7.14064,-12.367 14.60017,-8.4283 7.1375,12.3615 a 104.29227,104.29227 0 0 0 26.58989,-26.4477 l -12.45337,-7.191 8.42914,-14.6002 12.36626,7.1383 a 104.29227,104.29227 0 0 0 9.7534,-36.2013 l -14.33089,0 0,-16.8573 14.36294,0 a 104.29227,104.29227 0 0 0 -9.76467,-36.2148 l -12.38704,7.1512 -8.42914,-14.5996 12.37189,-7.1438 a 104.29227,104.29227 0 0 0 -26.46047,-26.5763 l -7.18544,12.443 -14.60017,-8.4291 7.1302,-12.3479 a 104.29227,104.29227 0 0 0 -36.19317,-9.727 l 0,14.2893 -16.85728,0 0,-14.3133 z m 10.10666,29.5641 a 74.366593,74.366601 0 0 1 41.67625,13.9663 l -6.15513,3.8509 a 67.726716,67.726725 0 0 0 -41.93279,-11.0363 67.726716,67.726725 0 0 0 -62.78307,72.3343 67.726716,67.726725 0 0 0 6.69546,24.5799 l -5.72687,3.5639 a 74.366593,74.366601 0 0 1 -7.59219,-27.6754 74.366593,74.366601 0 0 1 68.9383,-79.4255 74.366593,74.366601 0 0 1 6.88004,-0.1581 z m 65.35767,6.8401 -6.1713,16.4153 -27.83756,30.6767 -1.9965,6.0224 -6.35745,5.8074 2.08057,5.4926 -4.87477,-2.4753 -8.71034,8.417 1.02153,1.1502 0.88785,-0.721 1.97424,5.3119 -5.37666,-1.5936 0.74255,-1.4627 -0.71372,-0.7952 -10.18195,10.213 1.58901,1.2037 0.99585,-0.5404 5.53814,9.1965 -9.42176,-5.6318 1.04943,-1.1086 -1.69599,-1.3834 -5.94978,6.2478 -7.08871,0.7833 -1.25478,-0.4755 -3.31626,3.6184 c -1.46846,-0.053 -2.79364,-0.9199 -4.48945,0.3172 -7.43671,7.7952 -14.17772,14.3182 -22.89813,24.4591 1.90975,13.2812 -4.99495,15.4312 -13.87925,15.0806 17.19095,-7.75 1.4122,-24.3996 -8.3436,-8.9982 1.43872,-6.6002 0.71345,-14.3525 16.83095,-13.1399 8.55173,-7.3038 16.08138,-14.9101 23.1907,-22.6416 0.59751,-1.1519 1.32195,-2.1742 0.81525,-4.4439 l 3.44639,-2.9685 -1.27391,-2.0373 1.12453,-7.59 6.10802,-5.749 -1.42596,-1.3613 -0.87031,0.8585 -4.96667,-9.1523 8.64007,5.6363 -1.00703,0.8025 1.34431,1.6233 10.10109,-10.0195 -0.41958,-0.6283 -1.34994,0.8472 -2.1141,-5.96 5.91052,2.496 -0.87594,0.908 0.62106,0.8025 8.40273,-8.772 -1.81285,-4.3831 4.54783,1.8399 6.25028,-5.9874 7.41806,-2.7342 28.88385,-26.2449 17.15944,-7.2284 z m -64.75175,5.8027 a 61.750848,61.750855 0 0 1 29.29392,8.6888 l -5.31439,3.324 a 56.248287,56.248295 0 0 0 -30.18742,-6.4236 56.248287,56.248295 0 0 0 -52.14338,60.0737 56.248287,56.248295 0 0 0 4.95467,19.3478 l -4.62294,2.8765 a 61.750848,61.750855 0 0 1 -5.82026,-21.8359 61.750848,61.750855 0 0 1 57.24346,-65.9523 61.750848,61.750855 0 0 1 6.59634,-0.099 z m 58.63015,19.1328 a 74.366593,74.366601 0 0 1 13.30936,37.3209 74.366593,74.366601 0 0 1 -68.9382,79.4239 74.366593,74.366601 0 0 1 -40.57002,-8.8119 l 4.97702,-4.917 a 67.726716,67.726725 0 0 0 35.12454,7.1062 67.726716,67.726725 0 0 0 62.78242,-72.3328 67.726716,67.726725 0 0 0 -11.00274,-32.3415 l 4.31762,-5.4478 z m -8.23164,10.3832 a 61.750848,61.750855 0 0 1 8.9558,27.8273 61.750848,61.750855 0 0 1 -57.24262,65.9507 61.750848,61.750855 0 0 1 -30.17633,-5.6149 l 4.22173,-4.1706 a 56.248287,56.248295 0 0 0 25.56689,4.297 56.248287,56.248295 0 0 0 52.14171,-60.0745 56.248287,56.248295 0 0 0 -7.13657,-23.5881 l 3.66939,-4.6269 z m -68.19018,37.4528 -3.30656,0.2334 -0.37645,4.0811 3.23709,-1.2261 0.44592,-3.0884 z m 8.85906,9.6751 -2.64953,0.1216 -0.83927,4.113 3.76538,-0.3325 -0.27658,-3.9021 z"
           id="path3428"
           inkscape:connector-curvature="0" />
        <g
           transform="matrix(0.62841996,0,0,0.62841996,364.83554,-862.20833)"
           id="g3464"
           style="fill:#ffffff">
          <text
             xml:space="preserve"
             style="font-style:normal;font-variant:normal;font-weight:normal;font-stretch:normal;font-size:180.34698486px;line-height:125%;font-family:Narkisim;-inkscape-font-specification:'Narkisim, Normal';text-align:start;letter-spacing:0px;word-spacing:0px;writing-mode:lr-tb;text-anchor:start;fill:#ffffff;fill-opacity:1;stroke:none;stroke-width:1px;stroke-linecap:butt;stroke-linejoin:miter;stroke-opacity:1"
             x="869.87408"
             y="-346.80652"
             id="text3467"
             sodipodi:linespacing="125%"><tspan
               sodipodi:role="line"
               id="tspan3469"
               x="869.87408"
               y="-346.80652">KEENING</tspan></text>
          <text
             sodipodi:linespacing="125%"
             id="text3471"
             y="-282.78284"
             x="875.60516"
             style="font-style:normal;font-variant:normal;font-weight:normal;font-stretch:normal;font-size:42.50250244px;line-height:125%;font-family:Narkisim;-inkscape-font-specification:'Narkisim, Normal';text-align:start;letter-spacing:0px;word-spacing:0px;writing-mode:lr-tb;text-anchor:start;fill:#ffffff;fill-opacity:1;stroke:none;stroke-width:1px;stroke-linecap:butt;stroke-linejoin:miter;stroke-opacity:1"
             xml:space="preserve"><tspan
               y="-282.78284"
               x="875.60516"
               id="tspan3473"
               sodipodi:role="line">SIMPLE MORROWIND MOD INSTALLER</tspan></text>
          <rect
             style="fill:#ffffff;stroke:none"
             id="rect3475"
             width="743.47229"
             height="3.0304568"
             x="865.70062"
             y="-331.04172" />
        </g>
      </g>
    </g>
  </g>
</svg>
